<svg width="88" height="88" viewBox="0 0 88 88" fill="none" xmlns="http://www.w3.org/2000/svg">
<path d="M43.6816 86.291C67.0467 86.291 85.9878 67.3499 85.9878 43.9848C85.9878 20.6198 67.0467 1.67871 43.6816 1.67871C20.3166 1.67871 1.37549 20.6198 1.37549 43.9848C1.37549 67.3499 20.3166 86.291 43.6816 86.291Z" stroke="#030303" strokeWidth="1.31182"/>
<path d="M65.223 22.9209H22.3794V65.5259H65.223V22.9209Z" stroke="#030303" strokeWidth="1.31182"/>
<path d="M43.6816 1.02295V86.947" stroke="#030303" strokeWidth="1.31182"/>
<path d="M86.6438 43.9849H0.719727" stroke="#030303" strokeWidth="1.31182"/>
<path d="M74.0602 13.606L13.3027 74.3635" stroke="#030303" strokeWidth="1.31182"/>
<path d="M13.3032 13.606L74.0607 74.3635" stroke="#030303" strokeWidth="1.31182"/>
<path d="M43.6817 46.6086C45.1307 46.6086 46.3054 45.434 46.3054 43.985C46.3054 42.536 45.1307 41.3613 43.6817 41.3613C42.2327 41.3613 41.0581 42.536 41.0581 43.985C41.0581 45.434 42.2327 46.6086 43.6817 46.6086Z" fill="#FF6338"/>
<path d="M64.671 46.6086C66.12 46.6086 67.2946 45.434 67.2946 43.985C67.2946 42.536 66.12 41.3613 64.671 41.3613C63.222 41.3613 62.0474 42.536 62.0474 43.985C62.0474 45.434 63.222 46.6086 64.671 46.6086Z" fill="#FF6338"/>
<path d="M62.8157 66.6041C63.8403 67.6287 65.5015 67.6287 66.5261 66.6041C67.5507 65.5796 67.5507 63.9184 66.5261 62.8938C65.5015 61.8692 63.8403 61.8692 62.8157 62.8938C61.7911 63.9184 61.7911 65.5796 62.8157 66.6041Z" fill="#FF6338"/>
<path d="M66.3009 24.6257C67.3255 23.6011 67.3255 21.9399 66.3009 20.9153C65.2763 19.8907 63.6151 19.8907 62.5905 20.9153C61.5659 21.9399 61.5659 23.6011 62.5905 24.6257C63.6151 25.6503 65.2763 25.6503 66.3009 24.6257Z" fill="#FF6338"/>
<path d="M22.6925 46.6086C24.1415 46.6086 25.3161 45.434 25.3161 43.985C25.3161 42.536 24.1415 41.3613 22.6925 41.3613C21.2435 41.3613 20.0688 42.536 20.0688 43.985C20.0688 45.434 21.2435 46.6086 22.6925 46.6086Z" fill="#FF6338"/>
<path d="M20.8377 24.6256C21.8623 25.6502 23.5235 25.6502 24.5481 24.6256C25.5727 23.601 25.5727 21.9398 24.5481 20.9152C23.5235 19.8907 21.8623 19.8907 20.8377 20.9152C19.8131 21.9398 19.8131 23.601 20.8377 24.6256Z" fill="#FF6338"/>
<path d="M24.3229 66.6042C25.3475 65.5796 25.3475 63.9184 24.3229 62.8938C23.2983 61.8692 21.6371 61.8692 20.6125 62.8938C19.5879 63.9184 19.5879 65.5796 20.6125 66.6042C21.6371 67.6288 23.2983 67.6288 24.3229 66.6042Z" fill="#FF6338"/>
</svg>
