<svg width="88" height="88" viewBox="0 0 88 88" fill="none" xmlns="http://www.w3.org/2000/svg">
<path d="M43.5717 85.4212C66.588 85.4212 85.2464 66.7628 85.2464 43.7465C85.2464 20.7302 66.588 2.07178 43.5717 2.07178C20.5554 2.07178 1.89697 20.7302 1.89697 43.7465C1.89697 66.7628 20.5554 85.4212 43.5717 85.4212Z" stroke="#030303" strokeWidth="1.29224"/>
<path d="M14.5684 73.2337L14.5534 73.2414L14.5389 73.2501C14.4669 73.2927 14.3828 73.3102 14.2999 73.2997C14.2169 73.2892 14.1397 73.2515 14.0806 73.1923C14.0214 73.1331 13.9836 73.056 13.9732 72.973C13.9627 72.8901 13.9802 72.8059 14.0228 72.734L14.0316 72.7191L14.0396 72.7037C20.1737 60.9562 23.3564 52.4325 23.3852 43.8333C23.414 35.2327 20.2877 26.6513 14.0386 14.7871L14.0311 14.7728L14.0228 14.759C13.9802 14.687 13.9627 14.6028 13.9732 14.5199C13.9836 14.4368 14.0214 14.3597 14.0806 14.3006C14.1397 14.2414 14.2169 14.2037 14.2999 14.1932C14.3828 14.1827 14.4669 14.2002 14.5389 14.2428L14.5531 14.2512L14.5679 14.259C26.2973 20.4181 34.8773 23.5432 43.516 23.5317C52.1538 23.5202 60.756 20.3726 72.5294 14.2143L72.5445 14.2063L72.5592 14.1976C72.6311 14.155 72.7152 14.1375 72.7982 14.148C72.8812 14.1584 72.9583 14.1962 73.0175 14.2554C73.0767 14.3146 73.1144 14.3917 73.1249 14.4747C73.1354 14.5576 73.1179 14.6417 73.0753 14.7137L73.0669 14.7277L73.0594 14.7422C66.8778 26.4938 63.7299 35.0965 63.7299 43.7465C63.7299 52.3963 66.8778 60.999 73.0594 72.7506L73.0669 72.7651L73.0753 72.7792C73.1179 72.8512 73.1354 72.9353 73.1249 73.0182C73.1144 73.1012 73.0767 73.1784 73.0175 73.2375C72.9583 73.2966 72.8812 73.3345 72.7982 73.3449C72.7152 73.3554 72.6311 73.3378 72.5592 73.2953L72.5445 73.2865L72.5294 73.2786C60.7592 67.1219 52.2352 63.9391 43.636 63.9103C35.0355 63.8815 26.4544 67.0077 14.5684 73.2337Z" stroke="#030303" strokeWidth="1.29224"/>
<path d="M43.9039 14.0698L14.061 43.9126L43.7376 73.5892L73.5805 43.7464L43.9039 14.0698Z" stroke="#030303" strokeWidth="1.29224"/>
<path d="M13.646 13.8208L73.4967 73.6714" stroke="#030303" strokeWidth="1.29224"/>
<path d="M73.4972 13.8208L13.6465 73.6714" stroke="#030303" strokeWidth="1.29224"/>
<path d="M43.8102 47.2151C45.5944 47.2151 47.0408 45.7687 47.0408 43.9845C47.0408 42.2003 45.5944 40.7539 43.8102 40.7539C42.026 40.7539 40.5796 42.2003 40.5796 43.9845C40.5796 45.7687 42.026 47.2151 43.8102 47.2151Z" fill="#FF6338"/>
<path d="M65.1318 54.9688C66.5592 54.9688 67.7163 53.8116 67.7163 52.3843C67.7163 50.9569 66.5592 49.7998 65.1318 49.7998C63.7045 49.7998 62.5474 50.9569 62.5474 52.3843C62.5474 53.8116 63.7045 54.9688 65.1318 54.9688Z" fill="#FF6338"/>
<path d="M53.8155 24.2684C54.8248 23.2591 54.8248 21.6227 53.8155 20.6134C52.8062 19.6041 51.1698 19.6041 50.1605 20.6134C49.1512 21.6227 49.1512 23.2591 50.1605 24.2684C51.1698 25.2777 52.8062 25.2777 53.8155 24.2684Z" fill="#FF6338"/>
<path d="M28.9492 61.4297C30.3766 61.4297 31.5337 60.2726 31.5337 58.8452C31.5337 57.4179 30.3766 56.2607 28.9492 56.2607C27.5219 56.2607 26.3647 57.4179 26.3647 58.8452C26.3647 60.2726 27.5219 61.4297 28.9492 61.4297Z" fill="#FF6338"/>
<path d="M26.9 30.7301C27.9093 31.7394 29.5457 31.7394 30.555 30.7301C31.5643 29.7208 31.5643 28.0844 30.555 27.0751C29.5457 26.0658 27.9093 26.0658 26.9 27.0751C25.8907 28.0844 25.8907 29.7208 26.9 30.7301Z" fill="#FF6338"/>
</svg>
