<svg width="88" height="88" viewBox="0 0 88 88" fill="none" xmlns="http://www.w3.org/2000/svg">
<path d="M44.2099 86.6088C67.7505 86.6088 86.8339 67.5254 86.8339 43.9848C86.8339 20.4443 67.7505 1.36084 44.2099 1.36084C20.6694 1.36084 1.58594 20.4443 1.58594 43.9848C1.58594 67.5254 20.6694 86.6088 44.2099 86.6088Z" stroke="#030303" strokeWidth="1.332"/>
<path d="M44.375 43.3188C55.9614 43.3188 65.354 33.9262 65.354 22.3398C65.354 10.7535 55.9614 1.36084 44.375 1.36084C32.7886 1.36084 23.396 10.7535 23.396 22.3398C23.396 33.9262 32.7886 43.3188 44.375 43.3188Z" stroke="#030303" strokeWidth="1.332"/>
<path d="M44.375 86.6089C55.9614 86.6089 65.354 77.2163 65.354 65.6299C65.354 54.0435 55.9614 44.6509 44.375 44.6509C32.7886 44.6509 23.396 54.0435 23.396 65.6299C23.396 77.2163 32.7886 86.6089 44.375 86.6089Z" stroke="#030303" strokeWidth="1.332"/>
<path d="M44.21 0.694824V87.2748" stroke="#030303" strokeWidth="1.332"/>
<path d="M87.4999 43.9849H0.919922" stroke="#030303" strokeWidth="1.332"/>
<path d="M44.2099 47.3148C46.049 47.3148 47.5399 45.8239 47.5399 43.9848C47.5399 42.1457 46.049 40.6548 44.2099 40.6548C42.3708 40.6548 40.8799 42.1457 40.8799 43.9848C40.8799 45.8239 42.3708 47.3148 44.2099 47.3148Z" fill="#FF6338"/>
<path d="M75.5121 47.3148C76.9834 47.3148 78.1761 46.1221 78.1761 44.6508C78.1761 43.1795 76.9834 41.9868 75.5121 41.9868C74.0409 41.9868 72.8481 43.1795 72.8481 44.6508C72.8481 46.1221 74.0409 47.3148 75.5121 47.3148Z" fill="#FF6338"/>
<path d="M22.3936 28.9901C23.434 30.0304 25.1207 30.0304 26.1611 28.9901C27.2014 27.9497 27.2014 26.263 26.1611 25.2226C25.1207 24.1822 23.434 24.1822 22.3936 25.2226C21.3533 26.263 21.3533 27.9497 22.3936 28.9901Z" fill="#FF6338"/>
<path d="M77.1673 16.6118C78.2077 15.5714 78.2077 13.8847 77.1673 12.8443C76.127 11.8039 74.4402 11.8039 73.3998 12.8443C72.3595 13.8847 72.3595 15.5714 73.3998 16.6118C74.4402 17.6521 76.127 17.6521 77.1673 16.6118Z" fill="#FF6338"/>
<path d="M15.5717 45.9828C17.043 45.9828 18.2357 44.7901 18.2357 43.3188C18.2357 41.8475 17.043 40.6548 15.5717 40.6548C14.1004 40.6548 12.9077 41.8475 12.9077 43.3188C12.9077 44.7901 14.1004 45.9828 15.5717 45.9828Z" fill="#FF6338"/>
<path d="M26.5511 73.8881C27.5915 72.8478 27.5915 71.161 26.5511 70.1207C25.5107 69.0803 23.824 69.0803 22.7836 70.1207C21.7433 71.161 21.7433 72.8478 22.7836 73.8881C23.824 74.9285 25.5107 74.9285 26.5511 73.8881Z" fill="#FF6338"/>
</svg>
