<svg width="752" height="124" viewBox="0 0 752 124" fill="none" xmlns="http://www.w3.org/2000/svg">
<path fillRule="evenodd" clipRule="evenodd" d="M147.216 117.237C179.555 117.237 205.77 91.021 205.77 58.6823C205.77 26.3435 179.555 0.12793 147.216 0.12793C114.877 0.12793 88.6616 26.3435 88.6616 58.6823C88.6616 91.021 114.877 117.237 147.216 117.237ZM142.693 13.1816C139.351 14.2675 136.452 17.1662 130.653 22.9633L111.498 42.1206C105.699 47.9177 102.8 50.8163 101.715 54.1587C100.76 57.0988 100.76 60.2657 101.715 63.2058C102.8 66.5482 105.699 69.4469 111.498 75.2439L130.653 94.4012C136.452 100.198 139.351 103.098 142.693 104.183C145.633 105.139 148.799 105.139 151.739 104.183C155.081 103.098 157.979 100.198 163.778 94.4012L182.934 75.2439C188.733 69.4469 191.632 66.5482 192.717 63.2058C193.673 60.2657 193.673 57.0988 192.717 54.1587C191.632 50.8163 188.733 47.9177 182.934 42.1206L163.778 22.9633C157.979 17.1662 155.081 14.2675 151.739 13.1816C148.799 12.2263 145.633 12.2263 142.693 13.1816Z" fill="#59FFAC"/>
<path fillRule="evenodd" clipRule="evenodd" d="M125.258 112.981C118.476 115.725 111.065 117.237 103.3 117.237C70.9617 117.237 44.7461 91.021 44.7461 58.6823C44.7461 26.3435 70.9617 0.12793 103.3 0.12793C111.065 0.12793 118.476 1.63947 125.258 4.38421C117.866 7.37654 111.224 11.8348 105.693 17.3983C101.33 14.9539 98.5994 13.7031 95.8935 13.5611C92.8062 13.3995 89.7472 14.219 87.1545 15.9027C84.2071 17.8168 82.1575 21.3668 78.0583 28.4668L64.5121 51.9297C60.4129 59.0296 58.3633 62.5797 58.1793 66.0894C58.0176 69.1765 58.8372 72.2355 60.5211 74.8282C62.4352 77.7756 65.985 79.8252 73.0851 83.9244L96.5479 97.4708C103.029 101.212 106.55 103.246 109.785 103.713C114.399 107.55 119.61 110.693 125.258 112.981Z" fill="#59FFAC"/>
<path d="M411.219 30.9734C408.484 28.0532 404.473 26.0454 399.186 24.9503C393.899 23.8553 386.971 23.3076 378.403 23.3076C369.836 23.3076 363.637 23.4902 358.351 24.0379C353.064 24.5854 348.871 25.498 345.954 26.9581C342.855 28.4182 340.849 30.6083 339.574 33.3461C338.298 36.084 337.75 39.9168 337.75 44.4798H350.147C350.147 42.1069 350.329 40.2819 350.877 38.8218C351.24 37.3615 352.334 36.2665 354.158 35.5365C355.981 34.8064 358.715 34.2587 362.544 33.8936C366.373 33.5287 371.841 33.5287 378.585 33.5287C385.332 33.5287 389.343 33.7113 392.988 34.2587C396.635 34.6239 399.368 35.7188 401.192 37.3615C403.015 39.0042 404.291 41.3771 405.021 44.6624C405.75 47.9477 406.114 52.328 406.114 58.1686C402.103 57.256 397.547 56.7085 392.442 56.3433C387.337 55.9784 381.139 55.7959 373.481 55.7959C365.825 55.7959 356.709 56.3433 351.059 57.256C345.406 58.1686 341.213 60.1764 338.48 63.4617C337.02 65.1043 336.108 67.477 335.381 70.2149C335.563 67.477 335.744 64.7394 335.744 61.4541C335.744 53.0582 335.015 46.305 333.375 41.3771C331.734 36.2665 329.182 32.4335 325.535 29.8783C322.072 27.323 317.331 25.6803 311.681 24.7677C305.846 23.8551 298.92 23.4902 290.716 23.4902C282.512 23.4902 276.132 24.0377 270.661 25.3154C265.193 26.5929 261 29.1482 257.901 33.3461V24.9503H245.504V123.51H257.901V90.4743C261 94.6722 265.375 97.41 270.661 98.5052C275.948 99.6004 282.694 100.33 290.716 100.33C298.736 100.33 306.028 99.9653 311.681 99.0527C317.513 98.1401 322.072 96.4974 325.535 93.9421C329 91.3871 331.734 87.5541 333.375 82.261C333.921 80.6183 334.287 78.6107 334.651 76.6029C334.651 77.1506 334.651 77.6981 334.651 78.2456C334.651 84.8162 336.108 89.7442 338.844 92.8469C341.579 95.9499 345.954 97.9577 351.604 98.8703C357.439 99.7829 364.731 100.33 373.481 100.33C382.232 100.33 385.514 100.148 389.706 99.6002C393.899 99.2352 397.362 98.5052 399.916 97.5926C402.467 96.68 404.473 95.4024 405.932 93.9421V99.0527H418.145V63.4617C418.145 55.2484 417.599 48.6777 416.688 43.3846C415.776 38.2741 413.952 34.2587 411.037 31.3385L411.219 30.9734ZM322.254 76.4204C321.708 80.2534 320.249 83.1736 318.243 84.9988C316.238 86.824 312.956 88.1018 308.4 88.8318C304.023 89.3793 298.008 89.7444 290.35 89.7444C282.694 89.7444 277.772 89.3793 273.397 88.8318C269.022 88.2841 265.741 87.0066 263.551 84.9988C261.182 83.1736 259.724 80.2534 258.812 76.4204C257.901 72.5876 257.537 67.477 257.537 61.2715C257.537 55.0658 257.901 50.3204 258.812 46.4874C259.724 42.8372 261.182 40.0993 263.551 38.0915C265.923 36.084 269.204 34.9888 273.397 34.2587C277.772 33.5287 283.424 33.3461 290.35 33.3461C297.279 33.3461 304.023 33.7113 308.4 34.2587C312.774 34.8062 316.056 36.084 318.243 38.0915C320.249 39.9168 321.708 42.6546 322.254 46.4874C322.802 50.1378 323.166 55.0658 323.166 61.2715C323.166 67.477 322.802 72.5876 322.254 76.4204ZM405.932 77.5155C405.932 80.6183 405.566 82.991 404.839 84.6337C404.109 86.2763 402.651 87.5541 400.646 88.2841C398.458 89.0141 395.175 89.5618 390.8 89.7444C386.425 89.7444 380.591 89.9268 373.299 89.9268C366.007 89.9268 362.907 89.9268 359.444 89.5618C355.981 89.3793 353.246 88.8316 351.422 88.1015C349.599 87.3715 348.323 86.094 347.777 84.4513C347.23 82.8087 346.866 80.6185 346.866 77.8807C346.866 75.1428 347.23 72.7701 347.777 71.1275C348.323 69.4848 349.599 68.2071 351.422 67.477C353.246 66.747 355.981 66.1995 359.444 66.0169C362.907 65.8344 367.648 65.6518 373.299 65.8344L405.932 66.1995V77.5155Z" fill="#59FFAC"/>
<path d="M458.07 89.3808L422.885 24.5869H408.849L449.866 98.5067H453.877C452.236 101.974 450.596 104.712 448.955 106.719C447.315 108.727 445.674 110.188 443.668 110.918C441.663 111.83 439.293 112.378 436.376 112.56C433.459 112.744 429.814 112.926 425.439 112.926V123.146C432.183 123.146 437.836 122.782 442.029 121.868C446.221 120.956 449.866 119.678 452.42 118.037C455.153 116.393 457.341 114.204 459.164 111.648C460.988 109.093 462.627 105.989 464.269 102.522L501.641 24.4043H487.239L457.706 89.1982L458.07 89.3808Z" fill="#59FFAC"/>
<path d="M514.586 0.12793H502.189V98.6879H514.586V0.12793Z" fill="#59FFAC"/>
<path d="M740.824 66.3822C740.824 71.8579 740.824 76.0558 740.276 78.976C739.913 81.8964 739.183 84.0865 737.907 85.3643C736.631 86.6418 734.626 87.5544 731.891 87.737C729.155 88.1019 725.51 88.1019 720.769 88.1019C716.031 88.1019 711.472 87.737 708.739 87.0069C706.003 86.2769 704.364 84.8168 703.452 82.4439C702.54 80.0712 702.174 76.6033 702.174 71.6753V34.6242H747.568V24.4031H702.174V4.14355H689.777V47.5829C689.777 40.4648 688.138 35.1717 685.221 31.7038C682.121 28.2359 677.381 25.8632 671 24.7681C664.62 23.6731 656.416 23.1256 646.573 23.1256C636.727 23.1256 631.259 23.4905 625.608 24.4031C619.774 25.3158 615.217 26.9584 611.57 29.5137C608.107 32.069 605.371 35.9018 603.73 41.0123C602.09 45.9403 601.36 52.6935 601.36 60.9067V49.2256C601.36 42.1075 599.903 36.6318 596.804 32.799C593.704 29.1486 589.146 26.5933 582.947 25.3158C576.749 24.038 568.911 23.308 559.431 23.308C549.952 23.308 544.299 23.6731 538.467 24.5857C532.814 25.4983 528.075 27.141 524.61 29.6962C521.147 32.2513 518.594 36.0843 516.954 41.1949C515.313 46.3052 514.585 52.876 514.585 61.2719C514.585 69.6675 515.313 76.7859 516.954 82.0789C518.594 87.1895 521.147 91.2046 524.61 93.7599C528.075 96.3152 532.814 98.1406 538.467 98.8707C544.299 99.7833 551.227 100.148 559.431 100.148C567.635 100.148 572.922 99.9656 578.027 99.6005C583.313 99.2356 587.506 98.323 590.969 96.8629C594.432 95.4026 596.804 93.0299 598.443 89.9271C600.085 86.8244 600.997 82.4439 600.997 76.9684H589.512C589.512 79.8886 589.146 82.2613 588.418 84.0865C587.688 85.9118 586.23 87.1893 584.225 88.1019C582.219 89.0145 579.12 89.5622 575.109 89.7448C571.098 89.9271 565.812 90.1097 559.431 90.1097C553.051 90.1097 546.487 89.9271 542.112 89.3796C537.737 88.8322 534.456 87.737 532.268 86.0943C530.079 84.4517 528.621 81.8964 527.891 78.6111C527.164 75.3258 526.798 70.9453 526.798 65.4696H600.997V62.0019C600.997 70.5804 601.908 77.3335 603.366 82.4439C605.008 87.5544 607.559 91.5698 611.206 94.125C614.669 96.6803 619.41 98.5055 625.242 99.2356C631.077 99.9656 638.005 100.513 646.207 100.513C654.411 100.513 660.063 100.148 665.532 99.6005C671 99.053 675.377 97.7755 679.022 96.1328C682.485 94.3076 685.221 91.7523 686.862 88.2845C688.502 84.8166 689.414 80.2537 689.414 74.4132H677.565C677.565 77.881 677.199 80.6187 676.287 82.809C675.377 84.8166 673.918 86.4592 671.548 87.5544C669.361 88.6496 666.08 89.3796 662.069 89.7448C658.058 90.1097 652.771 90.2923 646.207 90.2923C639.644 90.2923 632.534 89.9271 628.159 89.3796C623.785 88.8322 620.503 87.5544 618.316 85.5466C616.311 83.7214 614.851 80.8012 614.305 76.9684C613.757 73.1356 613.393 68.0249 613.393 61.8194C613.393 55.6137 613.757 50.8682 614.305 47.0354C614.851 43.385 616.311 40.6474 618.316 38.6396C620.319 36.8144 623.603 35.5366 628.159 34.8066C632.534 34.0765 638.551 33.894 646.207 33.894C653.865 33.894 661.157 34.2591 665.714 34.9891C670.273 35.7194 673.372 36.9969 675.011 39.0045C676.653 41.0123 677.565 44.115 677.565 48.313H689.414V72.2228C689.414 79.1586 690.507 84.6342 692.513 88.467C694.518 92.2998 697.799 95.0377 702.358 96.4978C706.915 97.9579 712.931 98.6881 720.406 98.6881C727.88 98.6881 731.891 98.323 736.083 97.5929C740.094 96.8629 743.194 95.4026 745.563 93.2124C747.934 91.0223 749.392 87.737 750.304 83.5391C751.216 79.3411 751.579 73.5005 751.579 66.3822H740.64H740.824ZM589.512 55.4311H527.164C527.164 50.6857 527.709 46.8529 528.439 43.9325C529.169 41.0123 530.809 38.8222 532.996 37.3619C535.184 35.9018 538.467 34.8066 542.66 34.4417C546.853 33.894 552.503 33.7116 559.431 33.7116C566.357 33.7116 571.28 33.894 575.291 34.4417C579.302 34.9891 582.219 35.7192 584.407 36.9969C586.412 38.0919 587.87 39.7346 588.6 41.7423C589.33 43.7499 589.693 46.3052 589.693 49.4081V55.6139L589.512 55.4311Z" fill="#59FFAC"/>
<path fillRule="evenodd" clipRule="evenodd" d="M81.3423 112.981C74.5615 115.725 67.1496 117.237 59.3844 117.237C27.0457 117.237 0.830078 91.021 0.830078 58.6823C0.830078 26.3435 27.0457 0.12793 59.3844 0.12793C67.1496 0.12793 74.5615 1.63947 81.3423 4.38421C72.1254 8.11516 64.0748 14.1247 57.8888 21.7142H45.8385C37.6401 21.7142 33.541 21.7142 30.4096 23.3098C27.6551 24.7132 25.4158 26.9527 24.0124 29.7071C22.4168 32.8385 22.4168 36.9377 22.4168 45.1359V72.2286C22.4168 80.4268 22.4168 84.5261 24.0124 87.6575C25.4158 90.4118 27.6551 92.6513 30.4096 94.0547C33.541 95.6503 37.6401 95.6503 45.8385 95.6503H57.8888C64.0748 103.24 72.1254 109.25 81.3423 112.981Z" fill="#59FFAC"/>
</svg>
