<svg width="102" height="18" viewBox="0 0 102 18" fill="none" xmlns="http://www.w3.org/2000/svg">
<path fill-rule="evenodd" clip-rule="evenodd" d="M20.0882 16.9553C24.4819 16.9553 28.0437 13.3935 28.0437 8.99987C28.0437 4.60619 24.4819 1.04443 20.0882 1.04443C15.6946 1.04443 12.1328 4.60619 12.1328 8.99987C12.1328 13.3935 15.6946 16.9553 20.0882 16.9553ZM19.4737 2.81795C19.0197 2.9655 18.6259 3.35932 17.838 4.14694L15.2354 6.74973C14.4476 7.53734 14.0538 7.93117 13.9063 8.38528C13.7765 8.78473 13.7765 9.215 13.9063 9.61445C14.0538 10.0686 14.4476 10.4624 15.2354 11.25L17.838 13.8528C18.6259 14.6404 19.0197 15.0343 19.4737 15.1818C19.8732 15.3116 20.3033 15.3116 20.7028 15.1818C21.1568 15.0343 21.5506 14.6404 22.3385 13.8528L24.9411 11.25C25.7289 10.4624 26.1227 10.0686 26.2702 9.61445C26.4 9.215 26.4 8.78473 26.2702 8.38528C26.1227 7.93117 25.7289 7.53734 24.9411 6.74973L22.3385 4.14694C21.5506 3.35932 21.1568 2.9655 20.7028 2.81795C20.3033 2.68817 19.8732 2.68817 19.4737 2.81795Z" fill="#141414"/>
<path fill-rule="evenodd" clip-rule="evenodd" d="M17.1047 16.3771C16.1833 16.7499 15.1764 16.9553 14.1214 16.9553C9.72778 16.9553 6.16602 13.3935 6.16602 8.99987C6.16602 4.60619 9.72778 1.04443 14.1214 1.04443C15.1764 1.04443 16.1833 1.2498 17.1047 1.62271C16.1004 2.02926 15.198 2.63498 14.4465 3.39086C13.8538 3.05875 13.4827 2.88881 13.1151 2.86952C12.6957 2.84756 12.28 2.95891 11.9278 3.18766C11.5274 3.44771 11.2489 3.93004 10.6919 4.89466L8.85151 8.08243C8.29458 9.04706 8.01611 9.52938 7.99111 10.0062C7.96914 10.4256 8.08049 10.8413 8.30927 11.1935C8.56932 11.594 9.05162 11.8724 10.0163 12.4294L13.204 14.2698C14.0845 14.7781 14.563 15.0545 15.0025 15.1179C15.6293 15.6392 16.3373 16.0663 17.1047 16.3771Z" fill="#141414"/>
<path fill-rule="evenodd" clip-rule="evenodd" d="M11.1379 16.3771C10.2167 16.7499 9.20965 16.9553 8.15465 16.9553C3.76098 16.9553 0.199219 13.3935 0.199219 8.99987C0.199219 4.60619 3.76098 1.04443 8.15465 1.04443C9.20965 1.04443 10.2167 1.2498 11.1379 1.62271C9.8857 2.12961 8.79191 2.94609 7.95145 3.97723H6.31425C5.20037 3.97723 4.64346 3.97723 4.21802 4.19402C3.84377 4.38469 3.53953 4.68896 3.34886 5.06318C3.13207 5.48862 3.13207 6.04556 3.13207 7.1594V10.8403C3.13207 11.9542 3.13207 12.5111 3.34886 12.9366C3.53953 13.3108 3.84377 13.615 4.21802 13.8057C4.64346 14.0225 5.20037 14.0225 6.31425 14.0225H7.95145C8.79191 15.0537 9.8857 15.8702 11.1379 16.3771Z" fill="#141414"/>
<path d="M55.5577 4.80909C55.1861 4.41234 54.6411 4.13955 53.9229 3.99076C53.2046 3.84199 52.2633 3.76758 51.0992 3.76758C49.9352 3.76758 49.0931 3.79238 48.3748 3.86679C47.6565 3.94118 47.0869 4.06517 46.6905 4.26354C46.2694 4.46192 45.997 4.75948 45.8237 5.13145C45.6503 5.50342 45.5759 6.02417 45.5759 6.64412H47.2602C47.2602 6.32173 47.2849 6.07377 47.3593 5.8754C47.4088 5.67699 47.5574 5.52823 47.8051 5.42904C48.0529 5.32985 48.4242 5.25544 48.9445 5.20583C49.4647 5.15626 50.2077 5.15626 51.124 5.15626C52.0405 5.15626 52.5855 5.18106 53.0807 5.25544C53.5762 5.30505 53.9476 5.45382 54.1953 5.677C54.4431 5.90017 54.6164 6.22257 54.7156 6.66892C54.8147 7.11528 54.8641 7.7104 54.8641 8.50393C54.3192 8.37994 53.7001 8.30556 53.0066 8.25595C52.313 8.20637 51.4709 8.18156 50.4304 8.18156C49.3902 8.18156 48.1518 8.25595 47.3841 8.37994C46.6161 8.50393 46.0464 8.77672 45.6751 9.22307C45.4767 9.44625 45.3529 9.76862 45.254 10.1406C45.2787 9.76862 45.3034 9.39667 45.3034 8.95031C45.3034 7.80962 45.2043 6.8921 44.9815 6.22257C44.7585 5.52823 44.4118 5.00746 43.9163 4.66029C43.4458 4.31312 42.8017 4.08994 42.034 3.96595C41.2413 3.84196 40.3003 3.79238 39.1857 3.79238C38.0711 3.79238 37.2042 3.86677 36.461 4.04036C35.718 4.21394 35.1483 4.5611 34.7272 5.13145V3.99076H33.043V17.3815H34.7272V12.8931C35.1483 13.4635 35.7427 13.8354 36.461 13.9842C37.1792 14.133 38.0958 14.2322 39.1857 14.2322C40.2753 14.2322 41.266 14.1826 42.034 14.0586C42.8264 13.9346 43.4458 13.7114 43.9163 13.3643C44.3871 13.0171 44.7585 12.4964 44.9815 11.7772C45.0557 11.554 45.1054 11.2813 45.1548 11.0085C45.1548 11.0829 45.1548 11.1573 45.1548 11.2317C45.1548 12.1244 45.3529 12.7939 45.7245 13.2155C46.0961 13.6371 46.6905 13.9098 47.4582 14.0338C48.2509 14.1578 49.2416 14.2322 50.4304 14.2322C51.6195 14.2322 52.0653 14.2074 52.6349 14.133C53.2046 14.0834 53.6751 13.9842 54.022 13.8602C54.3686 13.7362 54.6411 13.5627 54.8394 13.3643V14.0586H56.4987V9.22307C56.4987 8.10718 56.4246 7.21447 56.3007 6.49532C56.1768 5.80099 55.929 5.25544 55.533 4.85869L55.5577 4.80909ZM43.4706 10.9837C43.3964 11.5045 43.1981 11.9012 42.9256 12.1492C42.6531 12.3972 42.2073 12.5708 41.5882 12.67C40.9936 12.7443 40.1764 12.794 39.136 12.794C38.0958 12.794 37.427 12.7443 36.8326 12.67C36.2382 12.5956 35.7924 12.422 35.4949 12.1492C35.173 11.9012 34.975 11.5045 34.8511 10.9837C34.7272 10.463 34.6778 9.76862 34.6778 8.92551C34.6778 8.08238 34.7272 7.43765 34.8511 6.91688C34.975 6.42094 35.173 6.04897 35.4949 5.77618C35.8171 5.50343 36.2629 5.35463 36.8326 5.25544C37.427 5.15626 38.195 5.13145 39.136 5.13145C40.0773 5.13145 40.9936 5.18106 41.5882 5.25544C42.1826 5.32983 42.6284 5.50343 42.9256 5.77618C43.1981 6.02416 43.3964 6.39614 43.4706 6.91688C43.545 7.41284 43.5944 8.08238 43.5944 8.92551C43.5944 9.76862 43.545 10.463 43.4706 10.9837ZM54.8394 11.1325C54.8394 11.554 54.7897 11.8764 54.6908 12.0996C54.5917 12.3228 54.3936 12.4964 54.1212 12.5955C53.824 12.6947 53.3779 12.7691 52.7835 12.794C52.1891 12.794 51.3964 12.8187 50.4057 12.8187C49.415 12.8187 48.9939 12.8187 48.5234 12.7691C48.0529 12.7443 47.6812 12.6699 47.4335 12.5707C47.1857 12.4716 47.0124 12.298 46.9383 12.0748C46.8638 11.8516 46.8144 11.5541 46.8144 11.1821C46.8144 10.8101 46.8638 10.4878 46.9383 10.2646C47.0124 10.0414 47.1857 9.8678 47.4335 9.76862C47.6812 9.66943 48.0529 9.59505 48.5234 9.57024C48.9939 9.54544 49.638 9.52063 50.4057 9.54544L54.8394 9.59505V11.1325Z" fill="#141414"/>
<path d="M61.8866 12.4862L57.1063 3.68301H55.1992L60.772 13.7261H61.3169C61.0939 14.1972 60.8712 14.5691 60.6481 14.8418C60.4254 15.1146 60.2023 15.3132 59.9299 15.4124C59.6574 15.5362 59.3355 15.6107 58.9391 15.6354C58.5428 15.6604 58.0475 15.6851 57.4532 15.6851V17.0736C58.3695 17.0736 59.1374 17.0242 59.7071 16.9C60.2768 16.7761 60.772 16.6025 61.1189 16.3795C61.4903 16.1562 61.7875 15.8587 62.0352 15.5115C62.283 15.1643 62.5057 14.7427 62.7287 14.2716L67.8063 3.6582H65.8496L61.8372 12.4614L61.8866 12.4862Z" fill="#141414"/>
<path d="M69.6022 0.618164H67.918V14.0089H69.6022V0.618164Z" fill="#141414"/>
<path d="M100.339 9.62006C100.339 10.364 100.339 10.9344 100.265 11.3311C100.215 11.7279 100.116 12.0254 99.943 12.199C99.7697 12.3726 99.4972 12.4966 99.1256 12.5214C98.754 12.571 98.2587 12.571 97.6146 12.571C96.9708 12.571 96.3514 12.5214 95.9801 12.4222C95.6084 12.323 95.3857 12.1247 95.2618 11.8023C95.1379 11.4799 95.0882 11.0087 95.0882 10.3392V5.30529H101.256V3.91661H95.0882V1.16406H93.4039V7.06591C93.4039 6.09882 93.1812 5.37967 92.7848 4.90851C92.3638 4.43735 91.7196 4.11499 90.8528 3.96619C89.9859 3.81743 88.8713 3.74304 87.534 3.74304C86.1963 3.74304 85.4533 3.79262 84.6856 3.91661C83.8929 4.0406 83.2738 4.26378 82.7783 4.61095C82.3078 4.95812 81.9362 5.47886 81.7131 6.1732C81.4904 6.84273 81.3912 7.76025 81.3912 8.87614V7.28909C81.3912 6.32199 81.1932 5.57805 80.7721 5.05731C80.3511 4.56134 79.7317 4.21418 78.8895 4.04061C78.0474 3.86701 76.9825 3.76782 75.6946 3.76782C74.4066 3.76782 73.6387 3.81743 72.8462 3.94142C72.0783 4.06541 71.4344 4.28859 70.9636 4.63576C70.4931 4.9829 70.1462 5.50367 69.9235 6.198C69.7004 6.89231 69.6016 7.78505 69.6016 8.92575C69.6016 10.0664 69.7004 11.0335 69.9235 11.7527C70.1462 12.447 70.4931 12.9925 70.9636 13.3397C71.4344 13.6869 72.0783 13.9349 72.8462 14.0341C73.6387 14.1581 74.58 14.2076 75.6946 14.2076C76.8092 14.2076 77.5274 14.1828 78.221 14.1332C78.9393 14.0837 79.5089 13.9597 79.9794 13.7613C80.4499 13.5629 80.7721 13.2405 80.9949 12.819C81.2179 12.3974 81.3418 11.8023 81.3418 11.0583H79.7814C79.7814 11.4551 79.7317 11.7775 79.6328 12.0254C79.5336 12.2734 79.3356 12.447 79.0631 12.571C78.7907 12.695 78.3696 12.7694 77.8246 12.7942C77.2797 12.819 76.5614 12.8438 75.6946 12.8438C74.8277 12.8438 73.9359 12.819 73.3415 12.7446C72.7471 12.6702 72.3013 12.5214 72.0041 12.2982C71.7066 12.0751 71.5086 11.7279 71.4094 11.2815C71.3106 10.8352 71.2608 10.24 71.2608 9.49607H81.3418V9.02494C81.3418 10.1904 81.4657 11.108 81.6637 11.8023C81.8867 12.4966 82.2334 13.0421 82.7289 13.3893C83.1994 13.7365 83.8435 13.9845 84.6359 14.0837C85.4286 14.1828 86.3699 14.2573 87.4842 14.2573C88.5989 14.2573 89.3668 14.2076 90.1098 14.1332C90.8528 14.0589 91.4475 13.8853 91.9427 13.6621C92.4132 13.4141 92.7848 13.0669 93.0079 12.5958C93.2306 12.1246 93.3545 11.5047 93.3545 10.7112H91.7447C91.7447 11.1823 91.6949 11.5543 91.5711 11.8519C91.4475 12.1246 91.2491 12.3478 90.9272 12.4966C90.63 12.6454 90.1843 12.7446 89.6393 12.7942C89.0944 12.8438 88.3761 12.8686 87.4842 12.8686C86.5927 12.8686 85.6266 12.819 85.0323 12.7446C84.4379 12.6702 83.9921 12.4966 83.6949 12.2238C83.4224 11.9758 83.2241 11.5791 83.1499 11.0583C83.0755 10.5376 83.0261 9.84324 83.0261 9.00013C83.0261 8.157 83.0755 7.51227 83.1499 6.99153C83.2241 6.49556 83.4224 6.12362 83.6949 5.85083C83.9671 5.60285 84.4132 5.42925 85.0323 5.33007C85.6266 5.23088 86.4441 5.20608 87.4842 5.20608C88.5247 5.20608 89.5154 5.25568 90.1345 5.35487C90.7539 5.45408 91.175 5.62766 91.3977 5.90041C91.6208 6.1732 91.7447 6.59475 91.7447 7.1651H93.3545V10.4136C93.3545 11.3559 93.5031 12.0999 93.7756 12.6206C94.048 13.1413 94.4938 13.5133 95.1132 13.7117C95.7323 13.9101 96.5497 14.0093 97.5652 14.0093C98.5806 14.0093 99.1256 13.9597 99.6953 13.8605C100.24 13.7613 100.661 13.5629 100.983 13.2653C101.305 12.9678 101.503 12.5214 101.627 11.9511C101.751 11.3807 101.801 10.5872 101.801 9.62006H100.314H100.339ZM79.7814 8.1322H71.3106C71.3106 7.48746 71.3847 6.96673 71.4839 6.56995C71.583 6.1732 71.8058 5.87564 72.103 5.67724C72.4002 5.47886 72.8462 5.33007 73.4159 5.28049C73.9856 5.20608 74.7533 5.1813 75.6946 5.1813C76.6356 5.1813 77.3044 5.20608 77.8494 5.28049C78.3943 5.35487 78.7907 5.45406 79.0878 5.62766C79.3603 5.77642 79.5584 5.9996 79.6575 6.27239C79.7567 6.54514 79.8061 6.89231 79.8061 7.3139V8.15703L79.7814 8.1322Z" fill="#141414"/>
</svg>
