<svg width="360" height="60" viewBox="0 0 360 60" fill="none" xmlns="http://www.w3.org/2000/svg">
<path d="M197.073 15.6305C195.765 14.2341 193.847 13.274 191.319 12.7503C188.791 12.2267 185.478 11.9648 181.381 11.9648C177.284 11.9648 174.32 12.0521 171.792 12.314C169.264 12.5758 167.259 13.0122 165.864 13.7104C164.382 14.4086 163.423 15.4559 162.813 16.7651C162.203 18.0743 161.941 19.9071 161.941 22.0891H167.869C167.869 20.9544 167.956 20.0817 168.218 19.3835C168.392 18.6852 168.915 18.1616 169.787 17.8125C170.659 17.4634 171.966 17.2015 173.797 17.0269C175.628 16.8524 178.243 16.8524 181.468 16.8524C184.694 16.8524 186.612 16.9397 188.355 17.2015C190.099 17.3761 191.406 17.8997 192.278 18.6852C193.15 19.4707 193.76 20.6054 194.109 22.1764C194.458 23.7474 194.632 25.842 194.632 28.6349C192.714 28.1985 190.535 27.9367 188.094 27.7621C185.653 27.5876 182.689 27.5003 179.027 27.5003C175.366 27.5003 171.007 27.7621 168.305 28.1985C165.602 28.6349 163.597 29.595 162.29 31.166C161.592 31.9515 161.156 33.0861 160.808 34.3953C160.895 33.0861 160.982 31.777 160.982 30.206C160.982 26.1912 160.633 22.9619 159.849 20.6054C159.064 18.1616 157.844 16.3287 156.1 15.1068C154.444 13.8849 152.177 13.0994 149.475 12.663C146.685 12.2266 143.373 12.0521 139.45 12.0521C135.527 12.0521 132.476 12.3139 129.86 12.9249C127.245 13.5358 125.24 14.7577 123.758 16.7651V12.7503H117.83V59.8805H123.758V44.0831C125.24 46.0905 127.332 47.3997 129.86 47.9234C132.388 48.4471 135.614 48.7962 139.45 48.7962C143.285 48.7962 146.772 48.6216 149.475 48.1852C152.264 47.7488 154.444 46.9633 156.1 45.7414C157.757 44.5196 159.064 42.6867 159.849 40.1556C160.11 39.3701 160.285 38.4101 160.459 37.45C160.459 37.7119 160.459 37.9737 160.459 38.2355C160.459 41.3775 161.156 43.734 162.464 45.2177C163.772 46.7015 165.864 47.6616 168.566 48.098C171.356 48.5344 174.843 48.7962 179.027 48.7962C183.212 48.7962 184.781 48.7089 186.786 48.447C188.791 48.2725 190.447 47.9234 191.668 47.487C192.888 47.0506 193.847 46.4397 194.545 45.7414V48.1852H200.385V31.166C200.385 27.2385 200.124 24.0965 199.688 21.5654C199.252 19.1216 198.38 17.2015 196.986 15.8051L197.073 15.6305ZM154.531 37.3627C154.27 39.1956 153.572 40.592 152.613 41.4648C151.654 42.3376 150.085 42.9486 147.906 43.2977C145.813 43.5595 142.937 43.7341 139.275 43.7341C135.614 43.7341 133.26 43.5595 131.168 43.2977C129.076 43.0358 127.507 42.4249 126.46 41.4648C125.327 40.592 124.63 39.1956 124.194 37.3627C123.758 35.5299 123.584 33.0861 123.584 30.1187C123.584 27.1512 123.758 24.882 124.194 23.0491C124.63 21.3036 125.327 19.9944 126.46 19.0343C127.594 18.0743 129.163 17.5506 131.168 17.2015C133.26 16.8524 135.963 16.7651 139.275 16.7651C142.588 16.7651 145.813 16.9397 147.906 17.2015C149.998 17.4633 151.567 18.0743 152.613 19.0343C153.572 19.9071 154.27 21.2163 154.531 23.0491C154.793 24.7947 154.967 27.1512 154.967 30.1187C154.967 33.0861 154.793 35.5299 154.531 37.3627ZM194.545 37.8864C194.545 39.3701 194.37 40.5047 194.022 41.2902C193.673 42.0757 192.976 42.6867 192.017 43.0358C190.971 43.3849 189.401 43.6468 187.309 43.7341C185.217 43.7341 182.427 43.8213 178.94 43.8213C175.453 43.8213 173.971 43.8213 172.315 43.6468C170.659 43.5595 169.351 43.2976 168.479 42.9485C167.607 42.5994 166.997 41.9885 166.736 41.203C166.474 40.4175 166.3 39.3702 166.3 38.061C166.3 36.7518 166.474 35.6172 166.736 34.8317C166.997 34.0462 167.607 33.4352 168.479 33.0861C169.351 32.737 170.659 32.4752 172.315 32.3879C173.971 32.3006 176.238 32.2133 178.94 32.3006L194.545 32.4752V37.8864Z" fill="white"/>
<path d="M219.477 43.5593L202.652 12.5756H195.94L215.554 47.9232H217.472C216.687 49.5813 215.903 50.8903 215.118 51.8503C214.334 52.8103 213.549 53.5093 212.59 53.8583C211.631 54.2943 210.498 54.5563 209.103 54.6433C207.708 54.7313 205.965 54.8183 203.873 54.8183V59.7053C207.098 59.7053 209.801 59.5313 211.806 59.0943C213.811 58.6583 215.554 58.0473 216.775 57.2623C218.082 56.4763 219.128 55.4293 220 54.2073C220.872 52.9853 221.656 51.5013 222.441 49.8433L240.312 12.4883H233.425L219.303 43.472L219.477 43.5593Z" fill="white"/>
<path d="M246.502 0.880371H240.574V48.0106H246.502V0.880371Z" fill="white"/>
<path d="M354.687 32.5621C354.687 35.1805 354.687 37.1879 354.425 38.5843C354.251 39.9808 353.902 41.0281 353.292 41.6391C352.682 42.25 351.723 42.6864 350.415 42.7737C349.107 42.9482 347.364 42.9482 345.097 42.9482C342.831 42.9482 340.651 42.7737 339.344 42.4246C338.036 42.0755 337.252 41.3773 336.816 40.2426C336.38 39.108 336.205 37.4497 336.205 35.0932V17.3758H357.912V12.4882H336.205V2.80029H330.277V23.5725C330.277 20.1687 329.493 17.6376 328.098 15.9793C326.616 14.321 324.349 13.1864 321.298 12.6627C318.247 12.1391 314.324 11.8773 309.617 11.8773C304.909 11.8773 302.294 12.0518 299.592 12.4882C296.802 12.9246 294.623 13.7101 292.879 14.932C291.223 16.1539 289.915 17.9867 289.13 20.4305C288.346 22.787 287.997 26.0163 287.997 29.9438V24.358C287.997 20.9542 287.3 18.3358 285.818 16.503C284.336 14.7574 282.156 13.5355 279.192 12.9246C276.228 12.3136 272.48 11.9645 267.947 11.9645C263.414 11.9645 260.711 12.1391 257.922 12.5755C255.219 13.0119 252.953 13.7974 251.296 15.0193C249.64 16.2411 248.419 18.074 247.635 20.5178C246.85 22.9615 246.502 26.1036 246.502 30.1184C246.502 34.1331 246.85 37.537 247.635 40.0681C248.419 42.5119 249.64 44.4319 251.296 45.6538C252.953 46.8757 255.219 47.7486 257.922 48.0977C260.711 48.5341 264.024 48.7086 267.947 48.7086C271.87 48.7086 274.398 48.6213 276.839 48.4467C279.367 48.2722 281.372 47.8358 283.028 47.1376C284.684 46.4393 285.818 45.3047 286.602 43.821C287.387 42.3373 287.823 40.2426 287.823 37.6243H282.331C282.331 39.0207 282.156 40.1553 281.808 41.0281C281.459 41.9009 280.762 42.5118 279.803 42.9482C278.844 43.3846 277.362 43.6465 275.444 43.7338C273.526 43.821 270.998 43.9083 267.947 43.9083C264.896 43.9083 261.757 43.821 259.665 43.5592C257.573 43.2974 256.004 42.7737 254.958 41.9882C253.911 41.2027 253.214 39.9808 252.865 38.4098C252.517 36.8388 252.342 34.7441 252.342 32.1257H287.823V30.4675C287.823 34.5696 288.259 37.7989 288.956 40.2426C289.741 42.6864 290.961 44.6065 292.705 45.8284C294.361 47.0503 296.628 47.9231 299.417 48.2722C302.207 48.6213 305.52 48.8832 309.442 48.8832C313.365 48.8832 316.068 48.7086 318.683 48.4467C321.298 48.1849 323.391 47.574 325.134 46.7885C326.79 45.9157 328.098 44.6938 328.883 43.0355C329.667 41.3772 330.103 39.1953 330.103 36.4024H324.437C324.437 38.0607 324.262 39.3698 323.826 40.4172C323.391 41.3772 322.693 42.1627 321.56 42.6864C320.514 43.2101 318.945 43.5592 317.027 43.7338C315.109 43.9083 312.581 43.9956 309.442 43.9956C306.304 43.9956 302.904 43.821 300.812 43.5592C298.72 43.2974 297.151 42.6864 296.105 41.7263C295.146 40.8535 294.448 39.4571 294.187 37.6243C293.925 35.7915 293.751 33.3476 293.751 30.3802C293.751 27.4127 293.925 25.1435 294.187 23.3107C294.448 21.5651 295.146 20.256 296.105 19.2959C297.063 18.4231 298.633 17.8121 300.812 17.463C302.904 17.1139 305.781 17.0266 309.442 17.0266C313.104 17.0266 316.591 17.2012 318.77 17.5503C320.95 17.8995 322.432 18.5104 323.216 19.4704C324.001 20.4305 324.437 21.9142 324.437 23.9216H330.103V35.355C330.103 38.6716 330.626 41.29 331.585 43.1228C332.544 44.9556 334.113 46.2648 336.293 46.963C338.472 47.6612 341.349 48.0104 344.923 48.0104C348.497 48.0104 350.415 47.8358 352.42 47.4867C354.338 47.1376 355.82 46.4393 356.953 45.392C358.087 44.3447 358.784 42.7737 359.22 40.7663C359.656 38.7589 359.83 35.966 359.83 32.5621H354.599H354.687ZM282.331 27.3254H252.517C252.517 25.0562 252.778 23.2234 253.127 21.8269C253.476 20.4305 254.26 19.3832 255.306 18.6849C256.352 17.9867 257.922 17.463 259.927 17.2885C261.932 17.0266 264.634 16.9394 267.947 16.9394C271.259 16.9394 273.613 17.0266 275.531 17.2885C277.449 17.5503 278.844 17.8994 279.89 18.5104C280.849 19.034 281.546 19.8195 281.895 20.7796C282.244 21.7396 282.418 22.9615 282.418 24.4453V27.4128L282.331 27.3254Z" fill="white"/>
<path fillRule="evenodd" d="M70.8301 56.8804C86.2941 56.8804 98.8301 44.3444 98.8301 28.8804C98.8301 13.4164 86.2941 0.880371 70.8301 0.880371C55.3661 0.880371 42.8301 13.4164 42.8301 28.8804C42.8301 44.3444 55.3661 56.8804 70.8301 56.8804ZM68.6671 7.12247C67.0691 7.64177 65.6831 9.02787 62.9101 11.8L53.7501 20.9608C50.9771 23.7329 49.5911 25.119 49.0721 26.7173C48.6154 28.1232 48.6154 29.6376 49.0721 31.0435C49.5911 32.6418 50.9771 34.0279 53.7501 36.8L62.9101 45.9608C65.6831 48.7329 67.0691 50.1194 68.6671 50.6384C70.0731 51.0954 71.5871 51.0954 72.9931 50.6384C74.5911 50.1194 75.9771 48.7329 78.7501 45.9608L87.9101 36.8C90.6831 34.0279 92.0691 32.6418 92.5881 31.0435C93.0451 29.6376 93.0451 28.1232 92.5881 26.7173C92.0691 25.119 90.6831 23.7329 87.9101 20.9608L78.7501 11.8C75.9771 9.02787 74.5911 7.64177 72.9931 7.12247C71.5871 6.66567 70.0731 6.66567 68.6671 7.12247Z" fill="white"/>
<path fillRule="evenodd" d="M60.3301 54.8454C57.0871 56.1574 53.5431 56.8804 49.8301 56.8804C34.3661 56.8804 21.8301 44.3444 21.8301 28.8804C21.8301 13.4164 34.3661 0.880371 49.8301 0.880371C53.5431 0.880371 57.0871 1.60317 60.3301 2.91567C56.7951 4.34657 53.6191 6.47847 50.9741 9.13887C48.8881 7.96997 47.5821 7.37187 46.2882 7.30397C44.8119 7.22667 43.3491 7.61857 42.1093 8.42367C40.6999 9.33897 39.7198 11.0366 37.7596 14.4317L31.282 25.6514C29.3218 29.0465 28.3417 30.7441 28.2537 32.4224C28.1764 33.8986 28.5683 35.3614 29.3735 36.6012C30.2888 38.0106 31.9863 38.9907 35.3815 40.9509L46.6011 47.4286C49.7001 49.2174 51.3841 50.1904 52.9311 50.4134C55.1371 52.2484 57.6291 53.7514 60.3301 54.8454Z" fill="white"/>
<path fillRule="evenodd" d="M39.3301 54.8454C36.0876 56.1574 32.5433 56.8804 28.8301 56.8804C13.3661 56.8804 0.830078 44.3444 0.830078 28.8804C0.830078 13.4164 13.3661 0.880371 28.8301 0.880371C32.5433 0.880371 36.0876 1.60317 39.3301 2.91567C34.9227 4.69977 31.073 7.57347 28.1149 11.2027H22.3526C18.4322 11.2027 16.4721 11.2027 14.9747 11.9657C13.6575 12.6368 12.5867 13.7077 11.9156 15.0248C11.1526 16.5222 11.1526 18.4824 11.1526 22.4027V35.3581C11.1526 39.2784 11.1526 41.2386 11.9156 42.736C12.5867 44.0531 13.6575 45.124 14.9747 45.7951C16.4721 46.5581 18.4322 46.5581 22.3526 46.5581H28.1149C31.073 50.1874 34.9227 53.0614 39.3301 54.8454Z" fill="white"/>
</svg>
