<svg width="102" height="18" viewBox="0 0 102 18" fill="none" xmlns="http://www.w3.org/2000/svg">
<path fill-rule="evenodd" clip-rule="evenodd" d="M19.889 17.2971C24.2827 17.2971 27.8445 13.7353 27.8445 9.34166C27.8445 4.94799 24.2827 1.38623 19.889 1.38623C15.4954 1.38623 11.9336 4.94799 11.9336 9.34166C11.9336 13.7353 15.4954 17.2971 19.889 17.2971ZM19.2745 3.15975C18.8204 3.3073 18.4266 3.70112 17.6388 4.48874L15.0362 7.09152C14.2483 7.87914 13.8545 8.27296 13.7071 8.72708C13.5773 9.12652 13.5773 9.5568 13.7071 9.95625C13.8545 10.4104 14.2483 10.8042 15.0362 11.5918L17.6388 14.1946C18.4266 14.9822 18.8204 15.3761 19.2745 15.5236C19.6739 15.6534 20.1041 15.6534 20.5036 15.5236C20.9576 15.3761 21.3514 14.9822 22.1393 14.1946L24.7418 11.5918C25.5297 10.8042 25.9235 10.4104 26.071 9.95625C26.2008 9.5568 26.2008 9.12652 26.071 8.72708C25.9235 8.27296 25.5297 7.87914 24.7418 7.09152L22.1393 4.48874C21.3514 3.70112 20.9576 3.3073 20.5036 3.15975C20.1041 3.02996 19.6739 3.02996 19.2745 3.15975Z" fill="#00FF83"/>
<path fill-rule="evenodd" clip-rule="evenodd" d="M16.9055 16.7189C15.9841 17.0917 14.9772 17.2971 13.9222 17.2971C9.52856 17.2971 5.9668 13.7353 5.9668 9.34166C5.9668 4.94799 9.52856 1.38623 13.9222 1.38623C14.9772 1.38623 15.9841 1.59159 16.9055 1.96451C15.9011 2.37106 14.9988 2.97678 14.2473 3.73266C13.6546 3.40055 13.2835 3.23061 12.9159 3.21132C12.4964 3.18936 12.0808 3.30071 11.7286 3.52945C11.3281 3.78951 11.0497 4.27184 10.4927 5.23646L8.65229 8.42423C8.09536 9.38886 7.81689 9.87118 7.79189 10.348C7.76992 10.7674 7.88127 11.1831 8.11005 11.5353C8.37011 11.9358 8.8524 12.2142 9.81705 12.7712L13.0048 14.6116C13.8853 15.1199 14.3638 15.3963 14.8033 15.4597C15.4301 15.981 16.1381 16.4081 16.9055 16.7189Z" fill="#00FF83"/>
<path fill-rule="evenodd" clip-rule="evenodd" d="M10.9387 16.7189C10.0175 17.0917 9.01044 17.2971 7.95543 17.2971C3.56176 17.2971 0 13.7353 0 9.34166C0 4.94799 3.56176 1.38623 7.95543 1.38623C9.01044 1.38623 10.0175 1.59159 10.9387 1.96451C9.68648 2.47141 8.59269 3.28789 7.75223 4.31903H6.11503C5.00115 4.31903 4.44424 4.31903 4.0188 4.53581C3.64455 4.72649 3.34031 5.03076 3.14964 5.40497C2.93285 5.83042 2.93285 6.38736 2.93285 7.5012V11.1821C2.93285 12.296 2.93285 12.8529 3.14964 13.2783C3.34031 13.6526 3.64455 13.9568 4.0188 14.1475C4.44424 14.3643 5.00115 14.3643 6.11503 14.3643H7.75223C8.59269 15.3955 9.68648 16.212 10.9387 16.7189Z" fill="#00FF83"/>
<path d="M55.3594 5.15088C54.9878 4.75413 54.4429 4.48135 53.7246 4.33255C53.0063 4.18379 52.065 4.10938 50.901 4.10938C49.7369 4.10938 48.8948 4.13418 48.1765 4.20859C47.4583 4.28297 46.8886 4.40697 46.4923 4.60534C46.0712 4.80371 45.7987 5.10127 45.6254 5.47325C45.4521 5.84522 45.3777 6.36596 45.3777 6.98592H47.0619C47.0619 6.66352 47.0867 6.41557 47.1611 6.21719C47.2105 6.01879 47.3591 5.87003 47.6069 5.77084C47.8546 5.67165 48.226 5.59724 48.7462 5.54763C49.2664 5.49805 50.0094 5.49805 50.9257 5.49805C51.8423 5.49805 52.3872 5.52286 52.8825 5.59724C53.378 5.64685 53.7493 5.79561 53.9971 6.01879C54.2448 6.24197 54.4182 6.56436 54.5173 7.01072C54.6165 7.45708 54.6659 8.0522 54.6659 8.84573C54.121 8.72174 53.5019 8.64735 52.8083 8.59774C52.1148 8.54816 51.2726 8.52336 50.2322 8.52336C49.192 8.52336 47.9535 8.59774 47.1858 8.72174C46.4178 8.84573 45.8482 9.11851 45.4768 9.56487C45.2785 9.78805 45.1546 10.1104 45.0557 10.4824C45.0805 10.1104 45.1052 9.73847 45.1052 9.29211C45.1052 8.15142 45.006 7.2339 44.7833 6.56436C44.5602 5.87003 44.2136 5.34926 43.7181 5.00209C43.2476 4.65492 42.6035 4.43174 41.8358 4.30775C41.0431 4.18376 40.1021 4.13418 38.9875 4.13418C37.8728 4.13418 37.006 4.20856 36.2627 4.38216C35.5197 4.55573 34.9501 4.9029 34.529 5.47325V4.33255H32.8447V17.7233H34.529V13.2349C34.9501 13.8053 35.5445 14.1772 36.2627 14.326C36.981 14.4748 37.8976 14.574 38.9875 14.574C40.0771 14.574 41.0678 14.5244 41.8358 14.4004C42.6282 14.2764 43.2476 14.0532 43.7181 13.7061C44.1889 13.3589 44.5602 12.8382 44.7833 12.119C44.8574 11.8958 44.9071 11.6231 44.9566 11.3503C44.9566 11.4247 44.9566 11.4991 44.9566 11.5735C44.9566 12.4662 45.1546 13.1357 45.5263 13.5573C45.8979 13.9789 46.4923 14.2516 47.26 14.3756C48.0527 14.4996 49.0434 14.574 50.2322 14.574C51.4212 14.574 51.867 14.5492 52.4367 14.4748C53.0063 14.4252 53.4769 14.326 53.8238 14.202C54.1704 14.078 54.4429 13.9045 54.6412 13.7061V14.4004H56.3005V9.56487C56.3005 8.44898 56.2263 7.55626 56.1024 6.83712C55.9786 6.14278 55.7308 5.59724 55.3347 5.20049L55.3594 5.15088ZM43.2723 11.3255C43.1982 11.8463 42.9998 12.243 42.7274 12.491C42.4549 12.739 42.0091 12.9126 41.39 13.0118C40.7953 13.0861 39.9782 13.1357 38.9377 13.1357C37.8976 13.1357 37.2287 13.0861 36.6344 13.0118C36.04 12.9373 35.5942 12.7638 35.2967 12.491C34.9748 12.243 34.7768 11.8463 34.6529 11.3255C34.529 10.8048 34.4796 10.1104 34.4796 9.26731C34.4796 8.42417 34.529 7.77944 34.6529 7.25868C34.7768 6.76274 34.9748 6.39077 35.2967 6.11798C35.6189 5.84522 36.0647 5.69643 36.6344 5.59724C37.2287 5.49805 37.9967 5.47325 38.9377 5.47325C39.879 5.47325 40.7953 5.52286 41.39 5.59724C41.9844 5.67162 42.4302 5.84522 42.7274 6.11798C42.9998 6.36596 43.1982 6.73794 43.2723 7.25868C43.3467 7.75464 43.3962 8.42417 43.3962 9.26731C43.3962 10.1104 43.3467 10.8048 43.2723 11.3255ZM54.6412 11.4743C54.6412 11.8958 54.5915 12.2182 54.4926 12.4414C54.3934 12.6646 54.1954 12.8382 53.9229 12.9373C53.6257 13.0365 53.1797 13.1109 52.5853 13.1357C51.9909 13.1357 51.1982 13.1605 50.2075 13.1605C49.2167 13.1605 48.7957 13.1605 48.3251 13.1109C47.8546 13.0861 47.483 13.0117 47.2353 12.9125C46.9875 12.8134 46.8142 12.6398 46.74 12.4166C46.6656 12.1934 46.6161 11.8959 46.6161 11.5239C46.6161 11.1519 46.6656 10.8296 46.74 10.6064C46.8142 10.3832 46.9875 10.2096 47.2353 10.1104C47.483 10.0112 47.8546 9.93684 48.3251 9.91204C48.7957 9.88724 49.4398 9.86243 50.2075 9.88723L54.6412 9.93684V11.4743Z" fill="white"/>
<path d="M61.7245 13.0863L56.9441 4.2831H55.0371L60.6099 14.3262H61.1548C60.9318 14.7973 60.709 15.1692 60.486 15.4419C60.2633 15.7147 60.0402 15.9133 59.7678 16.0124C59.4953 16.1363 59.1734 16.2108 58.777 16.2355C58.3807 16.2605 57.8854 16.2852 57.2911 16.2852V17.6737C58.2073 17.6737 58.9753 17.6243 59.545 17.5001C60.1147 17.3762 60.6099 17.2026 60.9568 16.9796C61.3282 16.7563 61.6253 16.4588 61.8731 16.1116C62.1209 15.7644 62.3436 15.3428 62.5666 14.8717L67.6442 4.2583H65.6874L61.6751 13.0615L61.7245 13.0863Z" fill="white"/>
<path d="M69.404 0.959961H67.7197V14.3507H69.404V0.959961Z" fill="white"/>
<path d="M100.141 9.96186C100.141 10.7058 100.141 11.2762 100.067 11.6729C100.017 12.0697 99.9181 12.3672 99.7448 12.5408C99.5715 12.7144 99.299 12.8384 98.9273 12.8632C98.5557 12.9128 98.0605 12.9128 97.4164 12.9128C96.7726 12.9128 96.1532 12.8632 95.7818 12.764C95.4102 12.6648 95.1874 12.4665 95.0636 12.1441C94.9397 11.8217 94.89 11.3505 94.89 10.681V5.64709H101.057V4.25841H94.89V1.50586H93.2057V7.40771C93.2057 6.44061 92.9829 5.72147 92.5866 5.25031C92.1655 4.77915 91.5214 4.45678 90.6545 4.30799C89.7877 4.15922 88.6731 4.08484 87.3357 4.08484C85.9981 4.08484 85.2551 4.13442 84.4874 4.25841C83.6947 4.3824 83.0756 4.60558 82.5801 4.95275C82.1096 5.29992 81.7379 5.82066 81.5149 6.515C81.2921 7.18453 81.193 8.10205 81.193 9.21794V7.63089C81.193 6.66379 80.995 5.91985 80.5739 5.39911C80.1528 4.90314 79.5334 4.55597 78.6913 4.3824C77.8491 4.2088 76.7843 4.10962 75.4963 4.10962C74.2084 4.10962 73.4404 4.15922 72.648 4.28321C71.88 4.40721 71.2362 4.63038 70.7654 4.97755C70.2949 5.32469 69.948 5.84546 69.7252 6.5398C69.5022 7.23411 69.4033 8.12685 69.4033 9.26755C69.4033 10.4082 69.5022 11.3753 69.7252 12.0945C69.948 12.7888 70.2949 13.3343 70.7654 13.6815C71.2362 14.0287 71.88 14.2767 72.648 14.3759C73.4404 14.4999 74.3817 14.5494 75.4963 14.5494C76.6109 14.5494 77.3292 14.5246 78.0227 14.475C78.741 14.4255 79.3107 14.3015 79.7812 14.1031C80.2517 13.9047 80.5739 13.5823 80.7966 13.1608C81.0197 12.7392 81.1436 12.1441 81.1436 11.4001H79.5831C79.5831 11.7969 79.5334 12.1193 79.4346 12.3672C79.3354 12.6152 79.1374 12.7888 78.8649 12.9128C78.5924 13.0368 78.1713 13.1112 77.6264 13.136C77.0815 13.1608 76.3632 13.1856 75.4963 13.1856C74.6295 13.1856 73.7376 13.1608 73.1432 13.0864C72.5488 13.012 72.1031 12.8632 71.8059 12.64C71.5084 12.4168 71.3104 12.0697 71.2112 11.6233C71.1123 11.177 71.0626 10.5818 71.0626 9.83787H81.1436V9.36674C81.1436 10.5322 81.2674 11.4497 81.4655 12.1441C81.6885 12.8384 82.0351 13.3839 82.5306 13.7311C83.0011 14.0783 83.6453 14.3263 84.4377 14.4255C85.2304 14.5246 86.1717 14.599 87.286 14.599C88.4006 14.599 89.1686 14.5494 89.9116 14.475C90.6546 14.4006 91.2492 14.2271 91.7444 14.0039C92.2149 13.7559 92.5866 13.4087 92.8096 12.9376C93.0324 12.4664 93.1563 11.8465 93.1563 11.053H91.5464C91.5464 11.5241 91.4967 11.8961 91.3728 12.1937C91.2492 12.4664 91.0509 12.6896 90.729 12.8384C90.4318 12.9872 89.986 13.0864 89.4411 13.136C88.8961 13.1856 88.1779 13.2104 87.286 13.2104C86.3944 13.2104 85.4284 13.1608 84.834 13.0864C84.2396 13.012 83.7938 12.8384 83.4967 12.5656C83.2242 12.3176 83.0259 11.9209 82.9517 11.4001C82.8773 10.8794 82.8278 10.185 82.8278 9.34193C82.8278 8.4988 82.8773 7.85406 82.9517 7.33333C83.0259 6.83736 83.2242 6.46542 83.4967 6.19263C83.7688 5.94465 84.2149 5.77105 84.834 5.67186C85.4284 5.57268 86.2458 5.54787 87.286 5.54787C88.3265 5.54787 89.3172 5.59748 89.9363 5.69667C90.5557 5.79588 90.9767 5.96945 91.1995 6.24221C91.4225 6.515 91.5464 6.93655 91.5464 7.5069H93.1563V10.7554C93.1563 11.6977 93.3048 12.4417 93.5773 12.9624C93.8498 13.4831 94.2956 13.8551 94.915 14.0535C95.5341 14.2519 96.3515 14.3511 97.3669 14.3511C98.3824 14.3511 98.9273 14.3015 99.497 14.2023C100.042 14.1031 100.463 13.9047 100.785 13.6071C101.107 13.3096 101.305 12.8632 101.429 12.2929C101.553 11.7225 101.602 10.929 101.602 9.96186H100.116H100.141ZM79.5831 8.47399H71.1123C71.1123 7.82926 71.1865 7.30852 71.2856 6.91175C71.3848 6.515 71.6075 6.21744 71.9047 6.01903C72.2019 5.82066 72.648 5.67186 73.2177 5.62228C73.7873 5.54787 74.555 5.5231 75.4963 5.5231C76.4373 5.5231 77.1062 5.54787 77.6511 5.62228C78.1961 5.69667 78.5924 5.79586 78.8896 5.96945C79.1621 6.11822 79.3601 6.3414 79.4593 6.61418C79.5584 6.88694 79.6079 7.23411 79.6079 7.65569V8.49883L79.5831 8.47399Z" fill="white"/>
</svg>
