<svg width="102" height="51" viewBox="0 0 102 51" fill="none" xmlns="http://www.w3.org/2000/svg">
<path d="M12.5186 27.4295L25.0186 45.3037L37.5186 27.4295L25.0186 6.80371L12.5186 27.4295ZM25.0186 39.0695L19.7587 31.5419L25.0186 33.8642L30.2784 31.5419L25.0186 39.0695ZM25.0186 29.9807L17.2282 26.5531L25.0186 13.7015L32.8089 26.5531L25.0186 29.9807Z" fill="#848484"/>
<path d="M55.9192 13.8037H60.7192L66.0952 37.8037H62.8632L61.6152 31.9157H55.0232L53.7752 37.8037H50.5432L55.9192 13.8037ZM55.6632 28.9717H60.9752L58.3192 16.3637L55.6632 28.9717ZM75.4637 13.8037C77.7037 13.8037 79.4637 14.465 80.7437 15.7877C82.0237 17.089 82.6637 19.0944 82.6637 21.8037V29.8037C82.6637 32.513 82.0237 34.529 80.7437 35.8517C79.4637 37.153 77.7037 37.8037 75.4637 37.8037H68.8397V13.8037H75.4637ZM75.4637 34.8597C76.701 34.8597 77.6717 34.4864 78.3757 33.7397C79.101 32.993 79.4637 31.681 79.4637 29.8037V21.8037C79.4637 19.9264 79.1117 18.6144 78.4077 17.8677C77.7037 17.121 76.7223 16.7477 75.4637 16.7477H72.0397V34.8597H75.4637ZM90.3254 13.8037H95.1254L100.501 37.8037H97.2694L96.0214 31.9157H89.4294L88.1814 37.8037H84.9494L90.3254 13.8037ZM90.0694 28.9717H95.3814L92.7254 16.3637L90.0694 28.9717Z" fill="#848484"/>
</svg>
