<svg width="105" height="50" viewBox="0 0 105 50" fill="none" xmlns="http://www.w3.org/2000/svg">
<path d="M24.9951 18.0001L28.5951 15.8101L24.9501 13.7051L21.3501 15.7851L24.9951 18.0001Z" fill="#848484"/>
<path d="M18.8551 28.5502L18.8501 32.7402L15.2251 30.6452V26.3652L18.8551 28.5502Z" fill="#848484"/>
<path d="M31.145 28.5502L31.15 32.7402L34.78 30.6452V26.3652L31.145 28.5502Z" fill="#848484"/>
<path d="M34.855 21.395L32.915 18.125L25 22.91L17.085 18.125L15.145 21.395L23.1 26.205V35.2H26.9V26.205L34.855 21.395Z" fill="#848484"/>
<path d="M19.0251 14.3799L25.0001 10.9299L30.9751 14.3799L34.6801 12.1299L25.0001 6.54492L15.3201 12.1299L19.0251 14.3799Z" fill="#848484"/>
<path d="M12.8149 19.9802V17.8602L14.8699 16.7802L11.1549 14.5352L9.01489 15.4852V17.6802L12.8149 19.9802Z" fill="#848484"/>
<path d="M37.1849 17.8602V19.9802L40.9849 17.6802V15.4852L38.8449 14.5352L35.1299 16.7802L37.1849 17.8602Z" fill="#848484"/>
<path d="M18.8499 35.5201L12.8149 32.0351V24.9151L9.01489 22.6201V34.2301L18.8499 39.9051V35.5201Z" fill="#848484"/>
<path d="M37.1849 24.9151V32.0351L31.1499 35.5201V39.9051L40.9849 34.2301V22.6201L37.1849 24.9151Z" fill="#848484"/>
<path d="M26.9001 37.9751L25.0001 39.0701L23.1001 37.9751V42.3601L25.0001 43.4601L26.9001 42.3601V37.9751Z" fill="#848484"/>
<path d="M52.8368 37V13H59.3968C61.3594 13 62.9488 13.5013 64.1648 14.504C65.4021 15.5067 66.0208 16.968 66.0208 18.888V19.208C66.0208 20.4453 65.7434 21.4587 65.1888 22.248C64.6341 23.0373 63.8874 23.6347 62.9488 24.04C64.0794 24.4667 64.9754 25.1493 65.6368 26.088C66.3194 27.0267 66.6608 28.2107 66.6608 29.64V30.28C66.6608 32.456 66.0421 34.12 64.8048 35.272C63.5888 36.424 61.9994 37 60.0368 37H52.8368ZM59.0768 15.944H56.0368V22.952H59.1408C60.2714 22.952 61.1674 22.6853 61.8288 22.152C62.4901 21.5973 62.8208 20.7013 62.8208 19.464V19.144C62.8208 18.0133 62.4901 17.2027 61.8288 16.712C61.1888 16.2 60.2714 15.944 59.0768 15.944ZM59.7168 25.864H56.0368V34.056H59.7168C60.9114 34.056 61.8288 33.736 62.4688 33.096C63.1301 32.456 63.4608 31.4213 63.4608 29.992V29.672C63.4608 28.2853 63.1301 27.304 62.4688 26.728C61.8074 26.152 60.8901 25.864 59.7168 25.864ZM75.7745 13L81.6305 34.728V13H84.5745V37H79.2945L73.3745 15.016V37H70.4305V13H75.7745ZM89.3055 37V13H95.8655C97.8282 13 99.4175 13.5013 100.634 14.504C101.871 15.5067 102.49 16.968 102.49 18.888V19.208C102.49 20.4453 102.212 21.4587 101.658 22.248C101.103 23.0373 100.356 23.6347 99.4175 24.04C100.548 24.4667 101.444 25.1493 102.106 26.088C102.788 27.0267 103.13 28.2107 103.13 29.64V30.28C103.13 32.456 102.511 34.12 101.274 35.272C100.058 36.424 98.4682 37 96.5055 37H89.3055ZM95.5455 15.944H92.5055V22.952H95.6095C96.7402 22.952 97.6362 22.6853 98.2975 22.152C98.9588 21.5973 99.2895 20.7013 99.2895 19.464V19.144C99.2895 18.0133 98.9588 17.2027 98.2975 16.712C97.6575 16.2 96.7402 15.944 95.5455 15.944ZM96.1855 25.864H92.5055V34.056H96.1855C97.3802 34.056 98.2975 33.736 98.9375 33.096C99.5988 32.456 99.9295 31.4213 99.9295 29.992V29.672C99.9295 28.2853 99.5988 27.304 98.9375 26.728C98.2762 26.152 97.3588 25.864 96.1855 25.864Z" fill="#848484"/>
</svg>
