<svg width="101" height="51" viewBox="0 0 101 51" fill="none" xmlns="http://www.w3.org/2000/svg">
<path d="M30.3357 45.0234V39.6148C34.6816 39.162 37.8377 35.2719 37.3849 30.9259C37.163 28.7956 36.0868 26.8463 34.4023 25.5234C36.3042 24.025 37.4179 21.7402 37.4266 19.3189C37.4138 15.2688 34.3616 11.874 30.3357 11.432V6.02344H26.7902V11.3416H23.2448V6.02344H19.6993V11.3416H12.6084V39.7053H19.6993V45.0234H23.2448V39.7053H26.7902V45.0234H30.3357ZM16.1539 14.8871H29.4493C31.8969 14.8871 33.8811 16.8713 33.8811 19.3189C33.8811 21.7665 31.8969 23.7507 29.4493 23.7507H16.1539V14.8871ZM16.1539 36.1598V27.2962H29.4493C31.8969 27.2962 33.8811 29.2804 33.8811 31.728C33.8811 34.1756 31.8969 36.1598 29.4493 36.1598H16.1539Z" fill="#848484"/>
<path d="M52.6366 37.5234V13.5234H59.1966C61.1592 13.5234 62.7486 14.0248 63.9646 15.0274C65.2019 16.0301 65.8206 17.4914 65.8206 19.4114V19.7314C65.8206 20.9688 65.5432 21.9821 64.9886 22.7714C64.4339 23.5608 63.6872 24.1581 62.7486 24.5634C63.8792 24.9901 64.7752 25.6728 65.4366 26.6114C66.1192 27.5501 66.4606 28.7341 66.4606 30.1634V30.8034C66.4606 32.9794 65.8419 34.6434 64.6046 35.7954C63.3886 36.9474 61.7992 37.5234 59.8366 37.5234H52.6366ZM58.8766 16.4674H55.8366V23.4754H58.9406C60.0712 23.4754 60.9672 23.2088 61.6286 22.6754C62.2899 22.1208 62.6206 21.2248 62.6206 19.9874V19.6674C62.6206 18.5368 62.2899 17.7261 61.6286 17.2354C60.9886 16.7234 60.0712 16.4674 58.8766 16.4674ZM59.5166 26.3874H55.8366V34.5794H59.5166C60.7112 34.5794 61.6286 34.2594 62.2686 33.6194C62.9299 32.9794 63.2606 31.9448 63.2606 30.5154V30.1954C63.2606 28.8088 62.9299 27.8274 62.2686 27.2514C61.6072 26.6754 60.6899 26.3874 59.5166 26.3874ZM76.3438 37.5234H73.1438V16.4674H68.1198V13.5234H81.3678V16.4674H76.3438V37.5234ZM94.5106 28.3714H97.7106V29.6514C97.7106 32.3821 97.0812 34.4301 95.8226 35.7954C94.5852 37.1608 92.8572 37.8434 90.6386 37.8434C88.4412 37.8434 86.7132 37.1608 85.4546 35.7954C84.1959 34.4301 83.5666 32.3821 83.5666 29.6514V21.3954C83.5666 18.6648 84.1959 16.6168 85.4546 15.2514C86.7132 13.8861 88.4412 13.2034 90.6386 13.2034C92.8572 13.2034 94.5852 13.8861 95.8226 15.2514C97.0812 16.6168 97.7106 18.6648 97.7106 21.3954V22.3554H94.5106V21.3954C94.5106 19.4754 94.1692 18.1208 93.4866 17.3314C92.8039 16.5421 91.8546 16.1474 90.6386 16.1474C89.4439 16.1474 88.4946 16.5421 87.7906 17.3314C87.1079 18.1208 86.7666 19.4754 86.7666 21.3954V29.6514C86.7666 31.5714 87.1079 32.9261 87.7906 33.7154C88.4732 34.5048 89.4226 34.8994 90.6386 34.8994C91.8332 34.8994 92.7719 34.5048 93.4546 33.7154C94.1586 32.9261 94.5106 31.5714 94.5106 29.6514V28.3714Z" fill="#848484"/>
</svg>
