<svg width="101" height="50" viewBox="0 0 101 50" fill="none" xmlns="http://www.w3.org/2000/svg">
<path d="M34.65 40.8699L33.47 36.1499C34.8032 35.6669 35.9619 34.7971 36.798 33.6518C37.634 32.5065 38.1093 31.1378 38.1629 29.7208C38.2166 28.3038 37.8463 26.9031 37.0994 25.6978C36.3524 24.4925 35.2628 23.5374 33.97 22.9549C34.842 21.8345 35.3591 20.4789 35.4548 19.0623C35.5506 17.6457 35.2206 16.2329 34.5074 15.0052C33.7941 13.7776 32.7301 12.7912 31.4521 12.1729C30.174 11.5545 28.7402 11.3323 27.335 11.5349L26.16 6.81494L23.06 7.58494L24.22 12.2299L21.125 12.9999L19.965 8.35494L16.87 9.12994L18.025 13.7749L11.835 15.3149L18 40.0849L24.195 38.5399L25.35 43.1849L28.445 42.4149L27.3 37.7699L30.395 36.9999L31.555 41.6449L34.65 40.8699ZM15.705 17.6399L27.315 14.7449C28.3239 14.5426 29.3721 14.7368 30.2415 15.2873C31.1109 15.8378 31.7347 16.7022 31.9832 17.7008C32.2318 18.6994 32.0859 19.7553 31.5759 20.6491C31.0659 21.5429 30.2311 22.2058 29.245 22.4999L17.635 25.3799L15.705 17.6399ZM20.335 36.2199L18.405 28.4999L30 25.5849C30.9941 25.4158 32.0154 25.6284 32.8594 26.1801C33.7035 26.7319 34.308 27.5821 34.552 28.5605C34.796 29.5389 34.6614 30.5734 34.1752 31.4569C33.689 32.3403 32.8871 33.0075 31.93 33.3249L20.335 36.2199Z" fill="#848484"/>
<path d="M52.7276 37V13H59.2876C61.2503 13 62.8396 13.5013 64.0556 14.504C65.293 15.5067 65.9116 16.968 65.9116 18.888V19.208C65.9116 20.4453 65.6343 21.4587 65.0796 22.248C64.525 23.0373 63.7783 23.6347 62.8396 24.04C63.9703 24.4667 64.8663 25.1493 65.5276 26.088C66.2103 27.0267 66.5516 28.2107 66.5516 29.64V30.28C66.5516 32.456 65.933 34.12 64.6956 35.272C63.4796 36.424 61.8903 37 59.9276 37H52.7276ZM58.9676 15.944H55.9276V22.952H59.0316C60.1623 22.952 61.0583 22.6853 61.7196 22.152C62.381 21.5973 62.7116 20.7013 62.7116 19.464V19.144C62.7116 18.0133 62.381 17.2027 61.7196 16.712C61.0796 16.2 60.1623 15.944 58.9676 15.944ZM59.6076 25.864H55.9276V34.056H59.6076C60.8023 34.056 61.7196 33.736 62.3596 33.096C63.021 32.456 63.3516 31.4213 63.3516 29.992V29.672C63.3516 28.2853 63.021 27.304 62.3596 26.728C61.6983 26.152 60.781 25.864 59.6076 25.864ZM76.4349 37H73.2349V15.944H68.2109V13H81.4589V15.944H76.4349V37ZM87.3339 37H84.1339V13H87.3339V23.176H95.0779V13H98.2779V37H95.0779V26.12H87.3339V37Z" fill="#848484"/>
</svg>
