<svg width="120" height="51" viewBox="0 0 120 51" fill="none" xmlns="http://www.w3.org/2000/svg">
<path d="M37.5774 32.39L41.0394 20.51L41.1054 20.202C41.1247 20.0387 41.1347 19.8745 41.1354 19.71C41.1354 17.5008 39.3445 15.71 37.1354 15.71H17.4014V19.71H37.1094L33.7094 31.4L33.6354 31.71H13.4014V35.71H33.6354C35.5822 35.7101 37.2464 34.3085 37.5774 32.39Z" fill="#848484"/>
<path d="M21.4014 23.71H9.40137V27.71H21.4014V23.71Z" fill="#848484"/>
<path d="M59.1043 13.71C61.3443 13.71 63.1043 14.3713 64.3843 15.694C65.6643 16.9953 66.3043 19.0006 66.3043 21.71V29.71C66.3043 32.4193 65.6643 34.4353 64.3843 35.758C63.1043 37.0593 61.3443 37.71 59.1043 37.71H52.4803V13.71H59.1043ZM59.1043 34.766C60.3416 34.766 61.3123 34.3926 62.0163 33.646C62.7416 32.8993 63.1043 31.5873 63.1043 29.71V21.71C63.1043 19.8326 62.7523 18.5206 62.0483 17.774C61.3443 17.0273 60.363 16.654 59.1043 16.654H55.6803V34.766H59.1043ZM73.9661 13.71H78.7661L84.1421 37.71H80.9101L79.6621 31.822H73.0701L71.8221 37.71H68.5901L73.9661 13.71ZM73.7101 28.878H79.0221L76.3661 16.27L73.7101 28.878ZM86.2786 19.278C86.2786 17.87 86.5452 16.7393 87.0786 15.886C87.6332 15.0113 88.3692 14.382 89.2866 13.998C90.2039 13.5926 91.2172 13.39 92.3266 13.39C93.4786 13.39 94.5132 13.6246 95.4306 14.094C96.3479 14.5633 97.0732 15.2673 97.6066 16.206C98.1612 17.1446 98.4386 18.3393 98.4386 19.79V21.262H95.2386V19.886C95.2386 18.6486 94.9719 17.7526 94.4386 17.198C93.9266 16.622 93.2226 16.334 92.3266 16.334C91.4732 16.334 90.7799 16.59 90.2466 17.102C89.7346 17.5926 89.4786 18.318 89.4786 19.278C89.4786 20.2166 89.7452 20.9953 90.2786 21.614C90.8332 22.2326 91.5052 22.8086 92.2946 23.342L94.8866 25.198C95.9532 25.9446 96.8706 26.8193 97.6386 27.822C98.4066 28.8033 98.7906 30.0726 98.7906 31.63C98.7906 33.0593 98.5026 34.254 97.9266 35.214C97.3506 36.1526 96.5719 36.8566 95.5906 37.326C94.6306 37.7953 93.5532 38.03 92.3586 38.03C91.1852 38.03 90.1079 37.7846 89.1266 37.294C88.1452 36.8033 87.3666 36.078 86.7906 35.118C86.2146 34.158 85.9266 32.9953 85.9266 31.63V29.838H89.1266V31.406C89.1266 32.5366 89.4146 33.4326 89.9906 34.094C90.5879 34.7553 91.3772 35.086 92.3586 35.086C93.3612 35.086 94.1506 34.8193 94.7266 34.286C95.3026 33.7313 95.5906 32.974 95.5906 32.014C95.5906 31.0113 95.3132 30.1686 94.7586 29.486C94.2252 28.8033 93.5532 28.1846 92.7426 27.63L90.2146 25.87C89.1266 25.1233 88.1986 24.238 87.4306 23.214C86.6626 22.19 86.2786 20.878 86.2786 19.278ZM105.618 37.71H102.418V13.71H105.618V23.886H113.362V13.71H116.562V37.71H113.362V26.83H105.618V37.71Z" fill="#848484"/>
</svg>
