<svg width="120" height="50" viewBox="0 0 120 50" fill="none" xmlns="http://www.w3.org/2000/svg">
<path d="M26.4399 8.11011H13.1349V23.1101H9.16992V26.9101H13.1349V41.9101H26.4399C34.2399 41.9101 40.8299 34.1751 40.8299 25.0201C40.8299 15.8651 34.2399 8.11011 26.4399 8.11011ZM26.4399 38.1101H16.9399V26.9001H26.5499V23.1001H16.9349V11.9101H26.4349C32.1749 11.9101 37.0249 17.9101 37.0249 25.0001C37.0249 32.0901 32.1799 38.0901 26.4399 38.0901V38.1101Z" fill="#848484"/>
<path d="M59.2733 13C61.5133 13 63.2733 13.6613 64.5533 14.984C65.8333 16.2853 66.4733 18.2907 66.4733 21V29C66.4733 31.7093 65.8333 33.7253 64.5533 35.048C63.2733 36.3493 61.5133 37 59.2733 37H52.6493V13H59.2733ZM59.2733 34.056C60.5106 34.056 61.4813 33.6827 62.1853 32.936C62.9106 32.1893 63.2733 30.8773 63.2733 29V21C63.2733 19.1227 62.9213 17.8107 62.2173 17.064C61.5133 16.3173 60.5319 15.944 59.2733 15.944H55.8493V34.056H59.2733ZM77.6513 37.32C75.4539 37.32 73.7259 36.648 72.4673 35.304C71.2086 33.9387 70.5793 31.88 70.5793 29.128V20.872C70.5793 18.1413 71.2086 16.0933 72.4673 14.728C73.7259 13.3627 75.4539 12.68 77.6513 12.68C79.8699 12.68 81.5979 13.3627 82.8353 14.728C84.0939 16.0933 84.7233 18.1413 84.7233 20.872V29.128C84.7233 31.88 84.0939 33.9387 82.8353 35.304C81.5979 36.648 79.8699 37.32 77.6513 37.32ZM77.6513 34.376C78.8459 34.376 79.7846 33.992 80.4673 33.224C81.1713 32.4347 81.5233 31.0693 81.5233 29.128V20.872C81.5233 18.952 81.1819 17.5973 80.4993 16.808C79.8166 16.0187 78.8673 15.624 77.6513 15.624C76.4566 15.624 75.5073 16.0187 74.8033 16.808C74.1206 17.5973 73.7793 18.952 73.7793 20.872V29.128C73.7793 31.0693 74.1206 32.4347 74.8033 33.224C75.4859 33.992 76.4353 34.376 77.6513 34.376ZM95.2933 37.32C93.2879 37.32 91.7093 36.6373 90.5573 35.272C89.4053 33.9067 88.8293 31.8587 88.8293 29.128V20.872C88.8293 18.1413 89.4586 16.0933 90.7173 14.728C91.9759 13.3627 93.7039 12.68 95.9013 12.68C98.1199 12.68 99.8479 13.3627 101.085 14.728C102.344 16.0933 102.973 18.1413 102.973 20.872V21.832H99.7733V20.872C99.7733 18.952 99.4319 17.5973 98.7493 16.808C98.0666 16.0187 97.1173 15.624 95.9013 15.624C94.7066 15.624 93.7573 16.0187 93.0533 16.808C92.3706 17.5973 92.0293 18.952 92.0293 20.872V29.128C92.0293 31.048 92.3706 32.4027 93.0533 33.192C93.7359 33.9813 94.6853 34.376 95.9013 34.376C97.0959 34.376 98.0346 33.992 98.7173 33.224C99.4213 32.4347 99.7733 31.1547 99.7733 29.384V27.304H95.4213V24.36H102.973V37H100.093V34.152C99.1973 36.264 97.5973 37.32 95.2933 37.32ZM118.308 34.056V37H107.556V13H118.308V15.944H110.756V23.176H117.668V26.12H110.756V34.056H118.308Z" fill="#848484"/>
</svg>
