<svg width="99" height="51" viewBox="0 0 99 51" fill="none" xmlns="http://www.w3.org/2000/svg">
<path d="M12.5186 27.1961L25.0186 45.0703L37.5186 27.1961L25.0186 6.57031L12.5186 27.1961ZM25.0186 38.8361L19.7587 31.3085L25.0186 33.6308L30.2784 31.3085L25.0186 38.8361ZM25.0186 29.7473L17.2282 26.3197L25.0186 13.4681L32.8089 26.3197L25.0186 29.7473Z" fill="#848484"/>
<path d="M63.4979 34.6263V37.5703H52.7459V13.5703H63.4979V16.5143H55.9459V23.7463H62.8579V26.6903H55.9459V34.6263H63.4979ZM73.4532 37.5703H70.2532V16.5143H65.2292V13.5703H78.4772V16.5143H73.4532V37.5703ZM84.3522 37.5703H81.1522V13.5703H84.3522V23.7463H92.0962V13.5703H95.2962V37.5703H92.0962V26.6903H84.3522V37.5703Z" fill="#848484"/>
</svg>
