<svg width="116" height="50" viewBox="0 0 116 50" fill="none" xmlns="http://www.w3.org/2000/svg">
<path d="M34.12 12.5C30.72 12.5 29.52 15.54 29.485 15.62C26.6 22.71 24 22.945 22.815 22.945C21.785 22.87 19.815 23.18 16.57 18.83C16.1353 18.2019 15.5452 17.6972 14.8574 17.3651C14.1695 17.033 13.4073 16.8848 12.645 16.935C8.59004 17.445 8.92004 25 8.92004 25C8.92004 25 8.59004 32.555 12.645 33.065C13.4073 33.1152 14.1695 32.9671 14.8574 32.6349C15.5452 32.3028 16.1353 31.7981 16.57 31.17C19.835 26.82 21.785 27.13 22.815 27.055C24 27.055 26.6 27.29 29.485 34.39C29.52 34.47 30.72 37.525 34.12 37.51C35 37.5 41.15 36.65 41.09 25C41.15 13.35 35 12.5 34.12 12.5Z" fill="#848484"/>
<path d="M55.693 37H52.493V13H55.693V23.176H63.437V13H66.637V37H63.437V26.12H55.693V37ZM78.28 37H75.08V27.336L69.032 13H72.232L76.68 24.008L81.128 13H84.328L78.28 27.336V37ZM89.943 37H86.743V13H93.687C95.6283 13 97.2177 13.544 98.455 14.632C99.6923 15.72 100.311 17.3093 100.311 19.4V21.128C100.311 23.304 99.6923 24.968 98.455 26.12C97.2177 27.272 95.6283 27.848 93.687 27.848H89.943V37ZM93.367 15.944H89.943V24.904H93.367C94.519 24.904 95.4257 24.584 96.087 23.944C96.7697 23.304 97.111 22.2587 97.111 20.808V19.72C97.111 18.3547 96.7697 17.384 96.087 16.808C95.4257 16.232 94.519 15.944 93.367 15.944ZM114.464 34.056V37H103.712V13H114.464V15.944H106.912V23.176H113.824V26.12H106.912V34.056H114.464Z" fill="#848484"/>
</svg>
