<svg width="116" height="50" viewBox="0 0 116 50" fill="none" xmlns="http://www.w3.org/2000/svg">
<path d="M39.9487 41V37.1102H20.9273L22.6233 28.6322L30.9475 25.3025L29.5005 21.6888L23.5335 24.0772L26.2953 10.2624L22.4832 9.5L19.2216 25.8004L10.0513 29.4685L11.4983 33.0822L18.3114 30.3554L16.1817 41H39.9487Z" fill="#848484"/>
<path d="M55.693 37H52.493V13H55.693V23.176H63.437V13H66.637V37H63.437V26.12H55.693V37ZM78.28 37H75.08V27.336L69.032 13H72.232L76.68 24.008L81.128 13H84.328L78.28 27.336V37ZM89.943 37H86.743V13H93.687C95.6283 13 97.2177 13.544 98.455 14.632C99.6923 15.72 100.311 17.3093 100.311 19.4V21.128C100.311 23.304 99.6923 24.968 98.455 26.12C97.2177 27.272 95.6283 27.848 93.687 27.848H89.943V37ZM93.367 15.944H89.943V24.904H93.367C94.519 24.904 95.4257 24.584 96.087 23.944C96.7697 23.304 97.111 22.2587 97.111 20.808V19.72C97.111 18.3547 96.7697 17.384 96.087 16.808C95.4257 16.232 94.519 15.944 93.367 15.944ZM114.464 34.056V37H103.712V13H114.464V15.944H106.912V23.176H113.824V26.12H106.912V34.056H114.464Z" fill="#848484"/>
</svg>
