<svg width="108" height="50" viewBox="0 0 108 50" fill="none" xmlns="http://www.w3.org/2000/svg">
<path d="M25 43.47L9 34.235V15.765L25 6.53003L41 15.765V34.235L25 43.47ZM12.81 32.04L25 39.08L37.19 32.04V17.96L25 10.92L12.81 17.96V32.04Z" fill="#848484"/>
<path d="M63.7354 34.056V37H52.7274V13H55.9274V34.056H63.7354ZM69.8024 37H66.6024V13H69.8024V37ZM79.8839 13L85.7399 34.728V13H88.6839V37H83.4039L77.4839 15.016V37H74.5399V13H79.8839ZM96.6149 13V24.68L103.623 13H107.143L99.9429 24.488L107.527 37H103.687L96.6149 25.192V37H93.4149V13H96.6149Z" fill="#848484"/>
</svg>
