<svg width="95" height="51" viewBox="0 0 95 51" fill="none" xmlns="http://www.w3.org/2000/svg">
<path d="M39.9677 41.6172V37.7273H20.9463L22.6423 29.2494L30.9666 25.9197L29.5196 22.306L23.5525 24.6944L26.3143 10.8796L22.5023 10.1172L19.2406 26.4176L10.0703 30.0857L11.5173 33.6994L18.3304 30.9726L16.2007 41.6172H39.9677Z" fill="#848484"/>
<path d="M63.4258 34.6732V37.6172H52.4178V13.6172H55.6178V34.6732H63.4258ZM70.5626 37.6172H67.3626V16.5612H62.3386V13.6172H75.5866V16.5612H70.5626V37.6172ZM88.7293 28.4652H91.9293V29.7452C91.9293 32.4759 91.3 34.5239 90.0413 35.8892C88.804 37.2545 87.076 37.9372 84.8573 37.9372C82.66 37.9372 80.932 37.2545 79.6733 35.8892C78.4146 34.5239 77.7853 32.4759 77.7853 29.7452V21.4892C77.7853 18.7585 78.4146 16.7105 79.6733 15.3452C80.932 13.9799 82.66 13.2972 84.8573 13.2972C87.076 13.2972 88.804 13.9799 90.0413 15.3452C91.3 16.7105 91.9293 18.7585 91.9293 21.4892V22.4492H88.7293V21.4892C88.7293 19.5692 88.388 18.2145 87.7053 17.4252C87.0226 16.6359 86.0733 16.2412 84.8573 16.2412C83.6626 16.2412 82.7133 16.6359 82.0093 17.4252C81.3266 18.2145 80.9853 19.5692 80.9853 21.4892V29.7452C80.9853 31.6652 81.3266 33.0199 82.0093 33.8092C82.692 34.5985 83.6413 34.9932 84.8573 34.9932C86.052 34.9932 86.9906 34.5985 87.6733 33.8092C88.3773 33.0199 88.7293 31.6652 88.7293 29.7452V28.4652Z" fill="#848484"/>
</svg>
