<svg width="135" height="50" viewBox="0 0 135 50" fill="none" xmlns="http://www.w3.org/2000/svg">
<path d="M29.265 7.25H16.265L15.15 14.15H9.77999V17.75H14.575L14.14 20.5H8.86499V24.1H13.565L10.565 42.775H23.565L25.445 31H29.265C32.3716 30.9362 35.3294 29.6574 37.5039 27.4378C39.6784 25.2182 40.8963 22.2347 40.8963 19.1275C40.8963 16.0203 39.6784 13.0368 37.5039 10.8172C35.3294 8.59762 32.3716 7.31876 29.265 7.255V7.25ZM18.22 17.75H28.96C29.1459 17.7387 29.3321 17.7656 29.5072 17.829C29.6822 17.8924 29.8425 17.9909 29.9781 18.1185C30.1137 18.2462 30.2218 18.4002 30.2956 18.5711C30.3695 18.7421 30.4076 18.9263 30.4076 19.1125C30.4076 19.2987 30.3695 19.483 30.2956 19.6539C30.2218 19.8248 30.1137 19.9788 29.9781 20.1065C29.8425 20.2341 29.6822 20.3326 29.5072 20.396C29.3321 20.4594 29.1459 20.4863 28.96 20.475H17.785L18.22 17.75ZM29.265 27.395H22.375L20.5 39.15H14.8L17.21 24.075H28.96C29.6249 24.0961 30.2873 23.9834 30.9078 23.7435C31.5284 23.5036 32.0943 23.1414 32.5722 22.6785C33.05 22.2157 33.4299 21.6615 33.6894 21.0489C33.9488 20.4363 34.0825 19.7778 34.0825 19.1125C34.0825 18.4472 33.9488 17.7887 33.6894 17.1761C33.4299 16.5635 33.05 16.0093 32.5722 15.5465C32.0943 15.0836 31.5284 14.7214 30.9078 14.4815C30.2873 14.2416 29.6249 14.1289 28.96 14.15H18.795L19.325 10.85H29.265C31.4238 10.9031 33.4763 11.7979 34.9844 13.3435C36.4925 14.8892 37.3366 16.9631 37.3366 19.1225C37.3366 21.2819 36.4925 23.3558 34.9844 24.9015C33.4763 26.4471 31.4238 27.3419 29.265 27.395Z" fill="#848484"/>
<path d="M55.8805 37H52.6805V13H59.6245C61.5658 13 63.1552 13.544 64.3925 14.632C65.6298 15.72 66.2485 17.3093 66.2485 19.4V21.128C66.2485 23.304 65.6298 24.968 64.3925 26.12C63.1552 27.272 61.5658 27.848 59.6245 27.848H55.8805V37ZM59.3045 15.944H55.8805V24.904H59.3045C60.4565 24.904 61.3632 24.584 62.0245 23.944C62.7072 23.304 63.0485 22.2587 63.0485 20.808V19.72C63.0485 18.3547 62.7072 17.384 62.0245 16.808C61.3632 16.232 60.4565 15.944 59.3045 15.944ZM76.5613 37H73.3613V27.336L67.3133 13H70.5133L74.9613 24.008L79.4093 13H82.6093L76.5613 27.336V37ZM84.8643 13H88.0643V29.608C88.0643 31.3573 88.3843 32.5947 89.0243 33.32C89.6856 34.024 90.6029 34.376 91.7763 34.376C92.9283 34.376 93.8349 34.024 94.4963 33.32C95.1576 32.5947 95.4883 31.3573 95.4883 29.608V13H98.6883V29.608C98.6883 32.2107 98.0696 34.152 96.8323 35.432C95.6163 36.6907 93.9309 37.32 91.7763 37.32C89.6216 37.32 87.9256 36.6907 86.6883 35.432C85.4723 34.152 84.8643 32.2107 84.8643 29.608V13ZM102.666 18.568C102.666 17.16 102.933 16.0293 103.466 15.176C104.021 14.3013 104.757 13.672 105.674 13.288C106.592 12.8827 107.605 12.68 108.714 12.68C109.866 12.68 110.901 12.9147 111.818 13.384C112.736 13.8533 113.461 14.5573 113.994 15.496C114.549 16.4347 114.826 17.6293 114.826 19.08V20.552H111.626V19.176C111.626 17.9387 111.36 17.0427 110.826 16.488C110.314 15.912 109.61 15.624 108.714 15.624C107.861 15.624 107.168 15.88 106.634 16.392C106.122 16.8827 105.866 17.608 105.866 18.568C105.866 19.5067 106.133 20.2853 106.666 20.904C107.221 21.5227 107.893 22.0987 108.682 22.632L111.274 24.488C112.341 25.2347 113.258 26.1093 114.026 27.112C114.794 28.0933 115.178 29.3627 115.178 30.92C115.178 32.3493 114.89 33.544 114.314 34.504C113.738 35.4427 112.96 36.1467 111.978 36.616C111.018 37.0853 109.941 37.32 108.746 37.32C107.573 37.32 106.496 37.0747 105.514 36.584C104.533 36.0933 103.754 35.368 103.178 34.408C102.602 33.448 102.314 32.2853 102.314 30.92V29.128H105.514V30.696C105.514 31.8267 105.802 32.7227 106.378 33.384C106.976 34.0453 107.765 34.376 108.746 34.376C109.749 34.376 110.538 34.1093 111.114 33.576C111.69 33.0213 111.978 32.264 111.978 31.304C111.978 30.3013 111.701 29.4587 111.146 28.776C110.613 28.0933 109.941 27.4747 109.13 26.92L106.602 25.16C105.514 24.4133 104.586 23.528 103.818 22.504C103.05 21.48 102.666 20.168 102.666 18.568ZM125.43 13C127.67 13 129.43 13.6613 130.71 14.984C131.99 16.2853 132.63 18.2907 132.63 21V29C132.63 31.7093 131.99 33.7253 130.71 35.048C129.43 36.3493 127.67 37 125.43 37H118.806V13H125.43ZM125.43 34.056C126.667 34.056 127.638 33.6827 128.342 32.936C129.067 32.1893 129.43 30.8773 129.43 29V21C129.43 19.1227 129.078 17.8107 128.374 17.064C127.67 16.3173 126.688 15.944 125.43 15.944H122.006V34.056H125.43Z" fill="#848484"/>
</svg>
