<svg width="98" height="50" viewBox="0 0 98 50" fill="none" xmlns="http://www.w3.org/2000/svg">
<path d="M36.8199 18.325H9.17993L13.1799 14.325H40.8199L36.8199 18.325Z" fill="#848484"/>
<path d="M36.8199 35.675H9.17993L13.1799 31.675H40.8199L36.8199 35.675Z" fill="#848484"/>
<path d="M13.1799 27.175H40.8199L36.8199 23.175H9.17993L13.1799 27.175Z" fill="#848484"/>
<path d="M51.9319 18.568C51.9319 17.16 52.1985 16.0293 52.7319 15.176C53.2865 14.3013 54.0225 13.672 54.9399 13.288C55.8572 12.8827 56.8705 12.68 57.9799 12.68C59.1319 12.68 60.1665 12.9147 61.0839 13.384C62.0012 13.8533 62.7265 14.5573 63.2599 15.496C63.8145 16.4347 64.0919 17.6293 64.0919 19.08V20.552H60.8919V19.176C60.8919 17.9387 60.6252 17.0427 60.0919 16.488C59.5799 15.912 58.8759 15.624 57.9799 15.624C57.1265 15.624 56.4332 15.88 55.8999 16.392C55.3879 16.8827 55.1319 17.608 55.1319 18.568C55.1319 19.5067 55.3985 20.2853 55.9319 20.904C56.4865 21.5227 57.1585 22.0987 57.9479 22.632L60.5399 24.488C61.6065 25.2347 62.5239 26.1093 63.2919 27.112C64.0599 28.0933 64.4439 29.3627 64.4439 30.92C64.4439 32.3493 64.1559 33.544 63.5799 34.504C63.0039 35.4427 62.2252 36.1467 61.2439 36.616C60.2839 37.0853 59.2065 37.32 58.0119 37.32C56.8385 37.32 55.7612 37.0747 54.7799 36.584C53.7985 36.0933 53.0199 35.368 52.4439 34.408C51.8679 33.448 51.5799 32.2853 51.5799 30.92V29.128H54.7799V30.696C54.7799 31.8267 55.0679 32.7227 55.6439 33.384C56.2412 34.0453 57.0305 34.376 58.0119 34.376C59.0145 34.376 59.8039 34.1093 60.3799 33.576C60.9559 33.0213 61.2439 32.264 61.2439 31.304C61.2439 30.3013 60.9665 29.4587 60.4119 28.776C59.8785 28.0933 59.2065 27.4747 58.3959 26.92L55.8679 25.16C54.7799 24.4133 53.8519 23.528 53.0839 22.504C52.3159 21.48 51.9319 20.168 51.9319 18.568ZM74.8231 37.32C72.6258 37.32 70.8978 36.648 69.6391 35.304C68.3805 33.9387 67.7511 31.88 67.7511 29.128V20.872C67.7511 18.1413 68.3805 16.0933 69.6391 14.728C70.8978 13.3627 72.6258 12.68 74.8231 12.68C77.0418 12.68 78.7698 13.3627 80.0071 14.728C81.2658 16.0933 81.8951 18.1413 81.8951 20.872V29.128C81.8951 31.88 81.2658 33.9387 80.0071 35.304C78.7698 36.648 77.0418 37.32 74.8231 37.32ZM74.8231 34.376C76.0178 34.376 76.9565 33.992 77.6391 33.224C78.3431 32.4347 78.6951 31.0693 78.6951 29.128V20.872C78.6951 18.952 78.3538 17.5973 77.6711 16.808C76.9885 16.0187 76.0391 15.624 74.8231 15.624C73.6285 15.624 72.6791 16.0187 71.9751 16.808C71.2925 17.5973 70.9511 18.952 70.9511 20.872V29.128C70.9511 31.0693 71.2925 32.4347 71.9751 33.224C72.6578 33.992 73.6071 34.376 74.8231 34.376ZM97.3291 34.056V37H86.3211V13H89.5211V34.056H97.3291Z" fill="#848484"/>
</svg>
