<svg width="98" height="50" viewBox="0 0 98 50" fill="none" xmlns="http://www.w3.org/2000/svg">
<path d="M33.785 12.67L8.63501 8L22.675 42L41.365 19.045L33.785 12.67ZM33.165 16.4L35.85 18.655L29.4 19.77L33.165 16.4ZM24.5 19.815L16.595 12.78L29.625 15.205L24.5 19.815ZM23 22.815L21.885 31.575L15.535 16.19L23 22.815ZM26.175 23.625L34.675 22.16L24.835 34.205L26.175 23.625Z" fill="#848484"/>
<path d="M58.9659 37H55.7659V15.944H50.7419V13H63.9899V15.944H58.9659V37ZM69.8649 37H66.6649V13H73.7049C75.0062 13 76.1582 13.2347 77.1609 13.704C78.1635 14.152 78.9529 14.8347 79.5289 15.752C80.1049 16.648 80.3929 17.7573 80.3929 19.08V20.04C80.3929 21.3627 80.1049 22.472 79.5289 23.368C78.9742 24.2427 78.2169 24.9147 77.2569 25.384C76.2969 25.832 75.2195 26.088 74.0249 26.152L81.1289 37H77.2889L69.8649 25.256V37ZM73.3849 15.944H69.8649V23.496H73.3849C74.5582 23.496 75.4862 23.208 76.1689 22.632C76.8515 22.0347 77.1929 21.064 77.1929 19.72V19.4C77.1929 18.1413 76.8515 17.256 76.1689 16.744C75.4862 16.2107 74.5582 15.944 73.3849 15.944ZM93.9226 37L89.7306 27.432L85.5386 37H82.0506L87.9066 24.68L82.4026 13H85.8586L89.7306 21.96L93.6026 13H97.0586L91.5546 24.68L97.4106 37H93.9226Z" fill="#848484"/>
</svg>
