<svg width="121" height="50" viewBox="0 0 121 50" fill="none" xmlns="http://www.w3.org/2000/svg">
<path d="M29.2399 31.8952C29.7939 31.4973 30.2406 30.9681 30.5399 30.3552C30.8865 29.6283 31.0577 28.8303 31.0399 28.0252C31.0581 27.4298 30.9578 26.8366 30.7449 26.2802C30.5613 25.8319 30.2773 25.4317 29.9149 25.1102C29.5439 24.7947 29.1276 24.5368 28.6799 24.3452C28.192 24.1359 27.691 23.9589 27.1799 23.8152C26.7427 23.6624 26.2948 23.5421 25.8399 23.4552C25.3848 23.369 24.9369 23.2487 24.4999 23.0952C24.1299 22.9789 23.7703 22.8317 23.4249 22.6552C23.153 22.5249 22.915 22.3332 22.7299 22.0952C22.5728 21.8679 22.4923 21.5964 22.4999 21.3202C22.4908 21.0512 22.5603 20.7854 22.6999 20.5552C22.8398 20.3444 23.0307 20.1724 23.2549 20.0552C23.4888 19.9249 23.7395 19.8273 23.9999 19.7652C24.3012 19.7051 24.6077 19.6749 24.9149 19.6752C25.3599 19.6702 25.8027 19.7395 26.2249 19.8802C26.6015 19.998 26.9409 20.2116 27.2099 20.5002C27.4759 20.8094 27.6384 21.194 27.6749 21.6002H30.6349C30.6046 20.6315 30.3107 19.6894 29.7849 18.8752C29.3055 18.1714 28.6435 17.6113 27.8699 17.2552C27.4574 17.0687 27.0244 16.9311 26.5799 16.8452V14.0952H23.3499V16.9102C22.9498 16.9852 22.5567 17.0939 22.1749 17.2352C21.6641 17.4282 21.1892 17.7054 20.7699 18.0552C20.3432 18.4239 20.0019 18.8812 19.7699 19.3952C19.5044 20.0276 19.3782 20.7097 19.3999 21.3952C19.3834 22.0262 19.4957 22.654 19.7299 23.2402C19.9347 23.722 20.2438 24.1523 20.6349 24.5002C21.0273 24.8438 21.471 25.1238 21.9499 25.3302C22.4517 25.5544 22.9699 25.7399 23.4999 25.8852C23.788 26.0088 24.0836 26.114 24.3849 26.2002C24.6919 26.2934 25.0041 26.3685 25.3199 26.4252C25.6399 26.4902 25.9499 26.5652 26.2449 26.6552C26.556 26.7437 26.8589 26.8591 27.1499 27.0002C27.3975 27.1159 27.6042 27.3041 27.7426 27.5398C27.881 27.7755 27.9445 28.0476 27.9249 28.3202C27.9343 28.5086 27.9064 28.6969 27.8429 28.8745C27.7794 29.0521 27.6816 29.2155 27.5549 29.3552C27.2928 29.6177 26.9645 29.8043 26.6049 29.8952C26.2237 29.9996 25.8301 30.0517 25.4349 30.0502C24.9281 30.0535 24.4232 29.9862 23.9349 29.8502C23.4818 29.7271 23.0639 29.4993 22.7149 29.1852C22.3593 28.8577 22.1103 28.4309 21.9999 27.9602H18.9099C19.0127 29.0141 19.4075 30.0185 20.0499 30.8602C20.639 31.6012 21.4184 32.1681 22.3049 32.5002C22.645 32.6281 22.9944 32.7301 23.3499 32.8052V35.8902H26.5799V32.8902C26.8449 32.8452 27.1149 32.7952 27.3799 32.7252C28.0458 32.5655 28.6764 32.2842 29.2399 31.8952Z" fill="#848484"/>
<path d="M11.9999 24.9998C12.0025 22.2933 12.8472 19.6547 14.4169 17.4498C15.9865 15.245 18.2033 13.5832 20.7599 12.6948V9.31982C17.3155 10.2528 14.2741 12.2939 12.1055 15.128C9.93699 17.962 8.76196 21.4313 8.76196 24.9998C8.76196 28.5684 9.93699 32.0376 12.1055 34.8717C14.2741 37.7057 17.3155 39.7469 20.7599 40.6798V37.3048C18.2033 36.4165 15.9865 34.7547 14.4169 32.5498C12.8472 30.345 12.0025 27.7063 11.9999 24.9998Z" fill="#848484"/>
<path d="M29.24 9.31982V12.6948C31.8085 13.5702 34.0387 15.2274 35.6179 17.434C37.1972 19.6407 38.0463 22.2863 38.0463 24.9998C38.0463 27.7134 37.1972 30.3589 35.6179 32.5656C34.0387 34.7723 31.8085 36.4295 29.24 37.3048V40.6798C32.6844 39.7469 35.7258 37.7057 37.8943 34.8717C40.0629 32.0376 41.2379 28.5684 41.2379 24.9998C41.2379 21.4313 40.0629 17.962 37.8943 15.128C35.7258 12.2939 32.6844 10.2528 29.24 9.31982Z" fill="#848484"/>
<path d="M52.5674 13H55.7674V29.608C55.7674 31.3573 56.0874 32.5947 56.7274 33.32C57.3887 34.024 58.306 34.376 59.4794 34.376C60.6314 34.376 61.538 34.024 62.1994 33.32C62.8607 32.5947 63.1914 31.3573 63.1914 29.608V13H66.3914V29.608C66.3914 32.2107 65.7727 34.152 64.5354 35.432C63.3194 36.6907 61.634 37.32 59.4794 37.32C57.3247 37.32 55.6287 36.6907 54.3914 35.432C53.1754 34.152 52.5674 32.2107 52.5674 29.608V13ZM70.3694 18.568C70.3694 17.16 70.636 16.0293 71.1694 15.176C71.724 14.3013 72.46 13.672 73.3774 13.288C74.2947 12.8827 75.308 12.68 76.4174 12.68C77.5694 12.68 78.604 12.9147 79.5214 13.384C80.4387 13.8533 81.164 14.5573 81.6974 15.496C82.252 16.4347 82.5294 17.6293 82.5294 19.08V20.552H79.3294V19.176C79.3294 17.9387 79.0627 17.0427 78.5294 16.488C78.0174 15.912 77.3134 15.624 76.4174 15.624C75.564 15.624 74.8707 15.88 74.3374 16.392C73.8254 16.8827 73.5694 17.608 73.5694 18.568C73.5694 19.5067 73.836 20.2853 74.3694 20.904C74.924 21.5227 75.596 22.0987 76.3854 22.632L78.9774 24.488C80.044 25.2347 80.9614 26.1093 81.7294 27.112C82.4974 28.0933 82.8814 29.3627 82.8814 30.92C82.8814 32.3493 82.5934 33.544 82.0174 34.504C81.4414 35.4427 80.6627 36.1467 79.6814 36.616C78.7214 37.0853 77.644 37.32 76.4494 37.32C75.276 37.32 74.1987 37.0747 73.2174 36.584C72.236 36.0933 71.4574 35.368 70.8814 34.408C70.3054 33.448 70.0174 32.2853 70.0174 30.92V29.128H73.2174V30.696C73.2174 31.8267 73.5054 32.7227 74.0814 33.384C74.6787 34.0453 75.468 34.376 76.4494 34.376C77.452 34.376 78.2414 34.1093 78.8174 33.576C79.3934 33.0213 79.6814 32.264 79.6814 31.304C79.6814 30.3013 79.404 29.4587 78.8494 28.776C78.316 28.0933 77.644 27.4747 76.8334 26.92L74.3054 25.16C73.2174 24.4133 72.2894 23.528 71.5214 22.504C70.7534 21.48 70.3694 20.168 70.3694 18.568ZM93.1326 13C95.3726 13 97.1326 13.6613 98.4126 14.984C99.6926 16.2853 100.333 18.2907 100.333 21V29C100.333 31.7093 99.6926 33.7253 98.4126 35.048C97.1326 36.3493 95.3726 37 93.1326 37H86.5086V13H93.1326ZM93.1326 34.056C94.37 34.056 95.3406 33.6827 96.0446 32.936C96.77 32.1893 97.1326 30.8773 97.1326 29V21C97.1326 19.1227 96.7806 17.8107 96.0766 17.064C95.3726 16.3173 94.3913 15.944 93.1326 15.944H89.7086V34.056H93.1326ZM115.383 27.848H118.583V29.128C118.583 31.8587 117.953 33.9067 116.695 35.272C115.457 36.6373 113.729 37.32 111.511 37.32C109.313 37.32 107.585 36.6373 106.327 35.272C105.068 33.9067 104.439 31.8587 104.439 29.128V20.872C104.439 18.1413 105.068 16.0933 106.327 14.728C107.585 13.3627 109.313 12.68 111.511 12.68C113.729 12.68 115.457 13.3627 116.695 14.728C117.953 16.0933 118.583 18.1413 118.583 20.872V21.832H115.383V20.872C115.383 18.952 115.041 17.5973 114.359 16.808C113.676 16.0187 112.727 15.624 111.511 15.624C110.316 15.624 109.367 16.0187 108.663 16.808C107.98 17.5973 107.639 18.952 107.639 20.872V29.128C107.639 31.048 107.98 32.4027 108.663 33.192C109.345 33.9813 110.295 34.376 111.511 34.376C112.705 34.376 113.644 33.9813 114.327 33.192C115.031 32.4027 115.383 31.048 115.383 29.128V27.848Z" fill="#848484"/>
</svg>
