<svg width="117" height="51" viewBox="0 0 117 51" fill="none" xmlns="http://www.w3.org/2000/svg">
<path d="M12.5186 27.2899L25.0186 45.1641L37.5186 27.2899L25.0186 6.66406L12.5186 27.2899ZM25.0186 38.9298L19.7587 31.4023L25.0186 33.7246L30.2784 31.4023L25.0186 38.9298ZM25.0186 29.8411L17.2282 26.4135L25.0186 13.5618L32.8089 26.4135L25.0186 29.8411Z" fill="#848484"/>
<path d="M52.3516 13.6641H55.5516V30.2721C55.5516 32.0214 55.8716 33.2587 56.5116 33.9841C57.1729 34.6881 58.0902 35.0401 59.2636 35.0401C60.4156 35.0401 61.3222 34.6881 61.9836 33.9841C62.6449 33.2587 62.9756 32.0214 62.9756 30.2721V13.6641H66.1756V30.2721C66.1756 32.8747 65.5569 34.8161 64.3196 36.0961C63.1036 37.3547 61.4182 37.9841 59.2636 37.9841C57.1089 37.9841 55.4129 37.3547 54.1756 36.0961C52.9596 34.8161 52.3516 32.8747 52.3516 30.2721V13.6641ZM70.1536 19.2321C70.1536 17.8241 70.4202 16.6934 70.9536 15.8401C71.5082 14.9654 72.2442 14.3361 73.1616 13.9521C74.0789 13.5467 75.0922 13.3441 76.2016 13.3441C77.3536 13.3441 78.3882 13.5787 79.3056 14.0481C80.2229 14.5174 80.9482 15.2214 81.4816 16.1601C82.0362 17.0987 82.3136 18.2934 82.3136 19.7441V21.2161H79.1136V19.8401C79.1136 18.6027 78.8469 17.7067 78.3136 17.1521C77.8016 16.5761 77.0976 16.2881 76.2016 16.2881C75.3482 16.2881 74.6549 16.5441 74.1216 17.0561C73.6096 17.5467 73.3536 18.2721 73.3536 19.2321C73.3536 20.1707 73.6202 20.9494 74.1536 21.5681C74.7082 22.1867 75.3802 22.7627 76.1696 23.2961L78.7616 25.1521C79.8282 25.8987 80.7456 26.7734 81.5136 27.7761C82.2816 28.7574 82.6656 30.0267 82.6656 31.5841C82.6656 33.0134 82.3776 34.2081 81.8016 35.1681C81.2256 36.1067 80.4469 36.8107 79.4656 37.2801C78.5056 37.7494 77.4282 37.9841 76.2336 37.9841C75.0602 37.9841 73.9829 37.7387 73.0016 37.2481C72.0202 36.7574 71.2416 36.0321 70.6656 35.0721C70.0896 34.1121 69.8016 32.9494 69.8016 31.5841V29.7921H73.0016V31.3601C73.0016 32.4907 73.2896 33.3867 73.8656 34.0481C74.4629 34.7094 75.2522 35.0401 76.2336 35.0401C77.2362 35.0401 78.0256 34.7734 78.6016 34.2401C79.1776 33.6854 79.4656 32.9281 79.4656 31.9681C79.4656 30.9654 79.1882 30.1227 78.6336 29.4401C78.1002 28.7574 77.4282 28.1387 76.6176 27.5841L74.0896 25.8241C73.0016 25.0774 72.0736 24.1921 71.3056 23.1681C70.5376 22.1441 70.1536 20.8321 70.1536 19.2321ZM92.9168 13.6641C95.1568 13.6641 96.9168 14.3254 98.1968 15.6481C99.4768 16.9494 100.117 18.9547 100.117 21.6641V29.6641C100.117 32.3734 99.4768 34.3894 98.1968 35.7121C96.9168 37.0134 95.1568 37.6641 92.9168 37.6641H86.2928V13.6641H92.9168ZM92.9168 34.7201C94.1541 34.7201 95.1248 34.3467 95.8288 33.6001C96.5541 32.8534 96.9168 31.5414 96.9168 29.6641V21.6641C96.9168 19.7867 96.5648 18.4747 95.8608 17.7281C95.1568 16.9814 94.1755 16.6081 92.9168 16.6081H89.4928V34.7201H92.9168ZM110.563 37.6641H107.363V16.6081H102.339V13.6641H115.587V16.6081H110.563V37.6641Z" fill="#848484"/>
</svg>
