<svg width="104" height="50" viewBox="0 0 104 50" fill="none" xmlns="http://www.w3.org/2000/svg">
<path d="M10.6449 31.1748L41.0999 15.5748L39.3499 12.1548L15.6299 24.3098C15.7161 22.7838 16.1744 21.3021 16.9646 19.9938C17.7549 18.6856 18.8531 17.5905 20.1637 16.8041C21.4743 16.0176 22.9573 15.5637 24.4835 15.4819C26.0097 15.4001 27.5328 15.6929 28.9199 16.3348L32.0949 14.7098C30.2374 13.4082 28.0583 12.6415 25.7951 12.4932C23.5318 12.3449 21.2713 12.8207 19.2599 13.8687C17.2484 14.9167 15.5632 16.4968 14.388 18.4366C13.2127 20.3765 12.5925 22.6017 12.5949 24.8698C12.5949 25.1998 12.5949 25.5198 12.6399 25.8448L8.8999 27.7598L10.6449 31.1748Z" fill="#848484"/>
<path d="M41.105 22.2251L39.35 18.8101L8.90503 34.4301L10.655 37.8451L34.375 25.6801C34.2903 27.2072 33.8334 28.6905 33.0442 30.0006C32.255 31.3107 31.1574 32.408 29.847 33.1968C28.5366 33.9856 27.0532 34.442 25.526 34.5262C23.9988 34.6105 22.4742 34.32 21.085 33.6801L17.915 35.3051C19.7728 36.609 21.9531 37.3773 24.2179 37.5261C26.4827 37.675 28.7448 37.1986 30.7572 36.149C32.7696 35.0995 34.455 33.5171 35.6291 31.5747C36.8032 29.6324 37.421 27.4047 37.415 25.1351C37.415 24.8101 37.415 24.4851 37.37 24.1651L41.105 22.2251Z" fill="#848484"/>
<path d="M62.032 37L57.84 27.432L53.648 37H50.16L56.016 24.68L50.512 13H53.968L57.84 21.96L61.712 13H65.168L59.664 24.68L65.52 37H62.032ZM79.0635 34.056V37H68.0555V13H71.2555V34.056H79.0635ZM93.5785 37H89.7065L84.8745 15.304V37H81.9305V13H87.4025L91.7865 32.776L96.0745 13H101.643V37H98.4425V15.4L93.5785 37Z" fill="#848484"/>
</svg>
