<svg width="102" height="51" viewBox="0 0 102 51" fill="none" xmlns="http://www.w3.org/2000/svg">
<path d="M12.5186 27.3827L25.0186 45.2568L37.5186 27.3827L25.0186 6.75684L12.5186 27.3827ZM25.0186 39.0226L19.7587 31.4951L25.0186 33.8174L30.2784 31.4951L25.0186 39.0226ZM25.0186 29.9338L17.2282 26.5062L25.0186 13.6546L32.8089 26.5062L25.0186 29.9338Z" fill="#848484"/>
<path d="M62.4256 37.7568L58.2336 28.1888L54.0416 37.7568H50.5536L56.4096 25.4368L50.9056 13.7568H54.3616L58.2336 22.7168L62.1056 13.7568H65.5616L60.0576 25.4368L65.9136 37.7568H62.4256ZM71.6491 37.7568H68.4491V13.7568H75.4891C76.7904 13.7568 77.9424 13.9915 78.9451 14.4608C79.9477 14.9088 80.7371 15.5915 81.3131 16.5088C81.8891 17.4048 82.1771 18.5142 82.1771 19.8368V20.7968C82.1771 22.1195 81.8891 23.2288 81.3131 24.1248C80.7584 24.9995 80.0011 25.6715 79.0411 26.1408C78.0811 26.5888 77.0037 26.8448 75.8091 26.9088L82.9131 37.7568H79.0731L71.6491 26.0128V37.7568ZM75.1691 16.7008H71.6491V24.2528H75.1691C76.3424 24.2528 77.2704 23.9648 77.9531 23.3888C78.6357 22.7915 78.9771 21.8208 78.9771 20.4768V20.1568C78.9771 18.8982 78.6357 18.0128 77.9531 17.5008C77.2704 16.9675 76.3424 16.7008 75.1691 16.7008ZM89.2428 37.7568H86.0428V13.7568H92.9868C94.9281 13.7568 96.5175 14.3008 97.7548 15.3888C98.9921 16.4768 99.6108 18.0662 99.6108 20.1568V21.8848C99.6108 24.0608 98.9921 25.7248 97.7548 26.8768C96.5175 28.0288 94.9281 28.6048 92.9868 28.6048H89.2428V37.7568ZM92.6668 16.7008H89.2428V25.6608H92.6668C93.8188 25.6608 94.7255 25.3408 95.3868 24.7008C96.0695 24.0608 96.4108 23.0155 96.4108 21.5648V20.4768C96.4108 19.1115 96.0695 18.1408 95.3868 17.5648C94.7255 16.9888 93.8188 16.7008 92.6668 16.7008Z" fill="#848484"/>
</svg>
