<svg width="101" height="50" viewBox="0 0 101 50" fill="none" xmlns="http://www.w3.org/2000/svg">
<path d="M25 24.0549C23.91 24.0575 22.8303 23.8445 21.8229 23.4284C20.8155 23.0122 19.9003 22.401 19.13 21.6299L8.85498 11.3549L11.685 8.5249L21.96 18.7999C22.3589 19.1996 22.8328 19.5167 23.3544 19.7331C23.8761 19.9495 24.4352 20.0609 25 20.0609C25.5647 20.0609 26.1239 19.9495 26.6456 19.7331C27.1672 19.5167 27.641 19.1996 28.04 18.7999L38.315 8.5249L41.145 11.3549L30.87 21.6299C30.099 22.4001 29.1837 23.0107 28.1764 23.4268C27.1692 23.8429 26.0898 24.0564 25 24.0549Z" fill="#848484"/>
<path d="M38.315 41.5002L28.04 31.2002C27.641 30.8004 27.1672 30.4833 26.6456 30.267C26.1239 30.0506 25.5647 29.9392 25 29.9392C24.4352 29.9392 23.8761 30.0506 23.3544 30.267C22.8328 30.4833 22.3589 30.8004 21.96 31.2002L11.685 41.5002L8.85498 38.6702L19.13 28.3702C20.6886 26.8167 22.7994 25.9443 25 25.9443C27.2006 25.9443 29.3114 26.8167 30.87 28.3702L41.145 38.6452L38.315 41.5002Z" fill="#848484"/>
<path d="M62.407 37L58.215 27.432L54.023 37H50.535L56.391 24.68L50.887 13H54.343L58.215 21.96L62.087 13H65.543L60.039 24.68L65.895 37H62.407ZM71.6305 37H68.4305V13H75.4705C76.7718 13 77.9238 13.2347 78.9265 13.704C79.9292 14.152 80.7185 14.8347 81.2945 15.752C81.8705 16.648 82.1585 17.7573 82.1585 19.08V20.04C82.1585 21.3627 81.8705 22.472 81.2945 23.368C80.7398 24.2427 79.9825 24.9147 79.0225 25.384C78.0625 25.832 76.9852 26.088 75.7905 26.152L82.8945 37H79.0545L71.6305 25.256V37ZM75.1505 15.944H71.6305V23.496H75.1505C76.3238 23.496 77.2518 23.208 77.9345 22.632C78.6172 22.0347 78.9585 21.064 78.9585 19.72V19.4C78.9585 18.1413 78.6172 17.256 77.9345 16.744C77.2518 16.2107 76.3238 15.944 75.1505 15.944ZM89.2243 37H86.0243V13H92.9683C94.9096 13 96.4989 13.544 97.7363 14.632C98.9736 15.72 99.5923 17.3093 99.5923 19.4V21.128C99.5923 23.304 98.9736 24.968 97.7363 26.12C96.4989 27.272 94.9096 27.848 92.9683 27.848H89.2243V37ZM92.6483 15.944H89.2243V24.904H92.6483C93.8003 24.904 94.7069 24.584 95.3683 23.944C96.0509 23.304 96.3923 22.2587 96.3923 20.808V19.72C96.3923 18.3547 96.0509 17.384 95.3683 16.808C94.7069 16.232 93.8003 15.944 92.6483 15.944Z" fill="#848484"/>
</svg>
